<svg width="76" height="78" viewBox="0 0 76 78" fill="none" xmlns="http://www.w3.org/2000/svg">
<path d="M74.316 36.7222L40.8608 3.24115L37.6164 0L12.4165 25.1999L0.894221 36.7222C0.321182 37.3043 0 38.0883 0 38.9051C0 39.7219 0.321182 40.506 0.894221 41.088L23.9161 64.1099L37.6164 77.7876L62.8034 52.6006L63.1956 52.2084L74.316 41.088C74.6055 40.803 74.8355 40.4632 74.9925 40.0885C75.1495 39.7137 75.2303 39.3114 75.2303 38.9051C75.2303 38.4988 75.1495 38.0966 74.9925 37.7218C74.8355 37.347 74.6055 37.0072 74.316 36.7222ZM37.6164 50.4031L26.1071 38.8938L37.6164 27.3974L49.116 38.8938L37.6164 50.4031Z" fill="black"/>
</svg>
