<svg width="86" height="59" viewBox="0 0 86 59" fill="none" xmlns="http://www.w3.org/2000/svg">
<path d="M58.5925 5.89293C58.1817 5.89293 57.9031 5.94294 57.6138 6.0108V6.05723H57.6638C57.8567 6.42868 58.1853 6.70012 58.4282 7.03228C58.621 7.41444 58.7853 7.79661 58.9782 8.1752L59.0282 8.12163C59.3639 7.8859 59.5282 7.50731 59.5282 6.93227C59.3854 6.76441 59.3639 6.59654 59.2425 6.43225C59.0996 6.19295 58.7925 6.07508 58.5996 5.88579L58.5925 5.89293ZM20.6083 53.0169H17.2974C17.2043 47.7551 16.8825 42.4999 16.333 37.2661H16.3045L11.2685 53.0169H8.75047L3.7502 37.2661H3.71449C3.32337 42.5081 3.09111 47.7608 3.01802 53.0169H0C0.196439 45.9951 0.685751 39.409 1.46437 33.2658H5.57173L10.3398 47.7809H10.3684L15.1794 33.2658H19.0903C19.9547 40.4627 20.4618 47.0523 20.619 53.0169H20.6083ZM34.9555 38.4447C33.6054 45.7487 31.8267 51.0632 29.6266 54.3741C27.9051 56.9314 26.0193 58.2065 23.9727 58.2065C23.4263 58.2065 22.7584 58.0422 21.9512 57.7136V55.9492C22.3441 56.0099 22.8084 56.0421 23.3298 56.0421C24.287 56.0421 25.0549 55.7742 25.6407 55.2492C26.3443 54.6063 26.6943 53.8848 26.6943 53.0883C26.6943 52.5347 26.4193 51.4097 25.8728 49.7167L22.2512 38.4447H25.5014L28.0979 46.8737C28.6837 48.7881 28.9301 50.1239 28.8301 50.8847C30.2588 47.0845 31.2517 42.9307 31.8124 38.4447H34.9555ZM78.9757 53.0169H69.5823V33.2658H72.7432V50.5882H78.9757V53.0169ZM67.1179 53.4991L63.4891 51.7133C63.8106 51.4418 64.1213 51.149 64.3999 50.8204C65.9464 49.0131 66.7143 46.3273 66.7143 42.7735C66.7143 36.2374 64.1499 32.9658 59.0175 32.9658C56.5031 32.9658 54.5387 33.7944 53.1243 35.4552C51.5885 37.2696 50.817 39.9412 50.817 43.4735C50.817 46.9452 51.4956 49.4953 52.8671 51.1168C54.1172 52.5812 55.9995 53.3134 58.521 53.3134C59.4639 53.3134 60.3283 53.1955 61.1105 52.9633L65.8428 55.7206L67.1286 53.4991H67.1179ZM55.3601 49.0631C54.5565 47.7773 54.1565 45.7058 54.1565 42.8628C54.1565 37.8875 55.6709 35.3981 58.6925 35.3981C60.2747 35.3981 61.4426 35.9946 62.1819 37.1839C62.982 38.4768 63.382 40.527 63.382 43.3378C63.382 48.3524 61.8676 50.8668 58.846 50.8668C57.2567 50.8668 56.0959 50.2703 55.353 49.081L55.3601 49.0631ZM49.4384 47.5452C49.4384 49.2239 48.8241 50.6025 47.5954 51.674C46.3668 52.7455 44.7274 53.2812 42.6523 53.2812C40.7129 53.2812 38.8521 52.6669 37.0341 51.4418L37.8806 49.7417C39.445 50.5275 40.8558 50.9132 42.1309 50.9132C43.3166 50.9132 44.2488 50.6525 44.9274 50.1275C45.2666 49.8718 45.5405 49.5395 45.7267 49.1577C45.9129 48.776 46.0062 48.3556 45.9989 47.9309C45.9989 46.7523 45.1774 45.7522 43.6845 44.9129C42.2987 44.1521 39.5307 42.5663 39.5307 42.5663C38.0235 41.4699 37.2734 40.2948 37.2734 38.3625C37.2734 36.7553 37.8342 35.4695 38.9521 34.4873C40.0772 33.4944 41.5237 33.0051 43.3095 33.0051C45.1382 33.0051 46.8097 33.4909 48.3098 34.4695L47.549 36.1696C46.3504 35.643 45.0579 35.3636 43.7488 35.3481C42.738 35.3481 41.9558 35.591 41.413 36.0839C41.1375 36.3121 40.9154 36.5979 40.7623 36.9213C40.6093 37.2447 40.529 37.5976 40.5272 37.9554C40.5272 39.1269 41.363 40.1341 42.9059 40.9913C44.3095 41.7592 47.1454 43.3843 47.1454 43.3843C48.6919 44.4736 49.4598 45.6344 49.4598 47.5559L49.4384 47.5452ZM82.9473 26.6441C81.0365 26.5941 79.5543 26.7869 78.315 27.3155C77.9578 27.4584 77.3863 27.4584 77.3363 27.912C77.5328 28.1013 77.5613 28.412 77.7292 28.6763C78.0149 29.1549 78.5078 29.7942 78.965 30.13C79.465 30.5228 79.965 30.9014 80.4901 31.2372C81.4187 31.8086 82.4723 32.1479 83.3831 32.723C83.901 33.0587 84.4296 33.4837 84.9546 33.8409C85.2153 34.0195 85.3832 34.3409 85.7189 34.4552V34.3838C85.5546 34.1695 85.5046 33.8587 85.3439 33.6194C85.1046 33.3801 84.8653 33.1658 84.6296 32.9301C83.9284 32.006 83.0915 31.1932 82.1473 30.5193C81.383 29.9978 79.7115 29.2692 79.3972 28.3942L79.3507 28.3441C79.8722 28.2977 80.4936 28.1084 80.9937 27.9656C81.8044 27.7513 82.5473 27.7977 83.3867 27.587C83.7653 27.4905 84.1474 27.3727 84.5296 27.2512V27.0369C84.101 26.6083 83.7795 26.0262 83.3367 25.6261C82.1005 24.5456 80.7822 23.5628 79.3936 22.6867C78.6435 22.2081 77.6935 21.9009 76.9042 21.4938C76.6184 21.3509 76.1398 21.2795 75.9755 21.0402C75.5469 20.5187 75.2969 19.8258 74.9933 19.2044C74.292 17.8439 73.6404 16.4584 73.0397 15.0506C72.6111 14.1148 72.3503 13.1826 71.8253 12.3254C69.3609 8.26449 66.6929 5.80364 62.5891 3.39637C61.7069 2.89634 60.6497 2.68204 59.5318 2.41774C58.9353 2.38917 58.3389 2.34631 57.746 2.32131C57.3531 2.15344 56.9745 1.69985 56.6388 1.48198C55.2816 0.62479 51.7671 -1.23245 50.767 1.22482C50.1241 2.77491 51.7207 4.30356 52.2743 5.08932C52.685 5.63578 53.2029 6.26081 53.4886 6.87513C53.6565 7.28944 53.7029 7.71446 53.8708 8.14663C54.2494 9.19668 54.6101 10.3682 55.1101 11.3504C55.3709 11.8504 55.6566 12.3754 55.9923 12.8255C56.1852 13.0862 56.5138 13.2076 56.5888 13.6362C56.253 14.122 56.2316 14.8291 56.0387 15.422C55.1816 18.1257 55.5173 21.4688 56.7316 23.4582C57.1138 24.0511 58.0246 25.3654 59.2425 24.8618C60.314 24.4332 60.0783 23.076 60.3854 21.8795C60.4568 21.5938 60.4104 21.4045 60.5569 21.2116V21.2652C60.8926 21.9367 61.2283 22.576 61.5355 23.2474C62.2712 24.4189 63.557 25.6333 64.6321 26.444C65.2035 26.8726 65.6571 27.6155 66.3715 27.8798V27.8084H66.3179C66.1643 27.6013 65.9607 27.5012 65.7678 27.3334C65.315 26.8901 64.897 26.4124 64.5178 25.9047C63.5115 24.5297 62.6192 23.0748 61.8498 21.5545C61.4569 20.8045 61.1283 19.9973 60.814 19.2579C60.6711 18.9722 60.6711 18.5436 60.4318 18.4008C60.0747 18.9222 59.5497 19.3758 59.2889 20.0187C58.8353 21.0473 58.7889 22.3117 58.6175 23.626C58.521 23.651 58.5675 23.626 58.521 23.676C57.7567 23.4903 57.496 22.6974 57.2102 22.0331C56.4959 20.3366 56.3781 17.6114 56.9959 15.6577C57.1638 15.1577 57.8781 13.5791 57.5924 13.1005C57.4424 12.6469 56.9709 12.3861 56.7102 12.0183C56.3748 11.5395 56.0877 11.0286 55.853 10.4932C55.2816 9.1574 54.9958 7.67874 54.3744 6.34296C54.0886 5.72507 53.5886 5.0786 53.1814 4.51072C52.7279 3.86782 52.2278 3.41423 51.8671 2.65347C51.7492 2.39274 51.5814 1.96058 51.7707 1.67485C51.8207 1.48198 51.9207 1.40698 52.1064 1.3534C52.4207 1.09624 53.3029 1.43198 53.6136 1.57484C54.4958 1.932 55.2387 2.26774 55.978 2.76776C56.3138 3.00349 56.6745 3.45709 57.1031 3.57495H57.6031C58.3674 3.74282 59.2282 3.62495 59.9425 3.83568C61.2105 4.24284 62.3534 4.83573 63.3784 5.47862C66.5369 7.49628 69.106 10.313 70.8253 13.6434C71.111 14.1934 71.236 14.697 71.4967 15.2684C71.9967 16.4471 72.6146 17.6364 73.1218 18.7758C73.6218 19.9008 74.104 21.0473 74.8219 21.9795C75.1791 22.4795 76.6149 22.7403 77.2578 23.001C77.7328 23.2153 78.4721 23.4117 78.9007 23.6725C79.7222 24.1725 80.5222 24.744 81.2937 25.294C81.6866 25.5654 82.8759 26.1619 82.9473 26.6441Z" fill="black"/>
</svg>
