<svg width="123" height="123" viewBox="0 0 123 123" fill="none" xmlns="http://www.w3.org/2000/svg">
<path d="M90.8062 114.704C90.3525 114.943 90.378 115.04 90.8317 114.811C90.9645 114.754 91.0855 114.672 91.1886 114.571C91.1886 114.489 91.1784 114.5 90.8062 114.704ZM91.7137 114.224C91.4995 114.393 91.4995 114.403 91.7595 114.27C91.9023 114.199 92.0246 114.117 92.0246 114.092C92.0246 113.995 91.9635 114.02 91.7137 114.224ZM92.3101 113.862C92.096 114.031 92.096 114.041 92.356 113.908C92.4988 113.837 92.6211 113.755 92.6211 113.73C92.6211 113.633 92.5599 113.659 92.3101 113.862ZM92.9066 113.506C92.6925 113.674 92.6925 113.684 92.9525 113.551C93.0952 113.48 93.2176 113.399 93.2176 113.373C93.2176 113.276 93.1564 113.302 92.9066 113.506ZM93.7325 112.97C93.3144 113.235 93.1819 113.414 93.5541 113.21C93.8192 113.057 94.2474 112.731 94.176 112.72C94.0197 112.788 93.871 112.871 93.7325 112.97V112.97ZM57.1643 0.0181906C56.8992 0.0436808 56.0631 0.125249 55.3086 0.186426C37.9345 1.75152 21.6565 11.1268 11.3482 25.539C5.64945 33.4493 1.94524 42.6189 0.550588 52.268C0.0611764 55.6276 0 56.6217 0 61.1793C0 65.737 0.0611764 66.726 0.550588 70.0907C3.87451 93.0624 20.2239 112.364 42.3953 119.516C46.3666 120.796 50.5521 121.668 55.3086 122.193C57.1643 122.397 65.1733 122.397 67.029 122.193C75.2419 121.285 82.2058 119.251 89.0678 115.749C90.118 115.208 90.3219 115.066 90.1792 114.948C86.8273 110.519 83.5067 106.067 80.2176 101.591L70.4345 88.3773L58.1788 70.2385C54.1039 64.1691 49.9897 58.1261 45.8364 52.1099C45.7906 52.0997 45.7396 60.1597 45.7192 69.9989C45.6835 87.2303 45.6733 87.9236 45.4541 88.3315C45.246 88.808 44.8732 89.1935 44.4039 89.4173C44.0215 89.6111 43.6851 89.6468 41.8804 89.6468H39.8106L39.26 89.3001C38.9203 89.086 38.6439 88.785 38.4596 88.4283L38.2098 87.8879L38.2353 63.9119L38.271 39.9256L38.6431 39.4617C38.8931 39.1679 39.1935 38.9211 39.5302 38.7327C40.0196 38.4931 40.2133 38.4676 42.2831 38.4676C44.7251 38.4676 45.1278 38.5644 45.7651 39.2578C50.7262 46.641 55.6459 54.0519 60.5239 61.4903C68.4666 73.5319 79.3203 89.973 84.658 98.0483L94.3443 112.72L94.8337 112.399C99.4945 109.299 103.721 105.591 107.4 101.372C115.108 92.5509 120.107 81.6928 121.797 70.1009C122.287 66.7413 122.348 65.7472 122.348 61.1895C122.348 56.6319 122.287 55.6429 121.797 52.2782C118.473 29.3064 102.124 10.0052 79.9525 2.8527C75.8091 1.53357 71.5421 0.640196 67.2176 0.186426C66.0705 0.069171 58.1635 -0.063378 57.1745 0.0334847L57.1643 0.0181906ZM82.2058 37.0197C82.491 37.163 82.7447 37.3617 82.9521 37.6042C83.1596 37.8466 83.3166 38.128 83.4141 38.4319C83.5109 38.7429 83.5313 45.3907 83.5109 60.3738L83.4752 81.8774L79.6823 76.0656L75.8792 70.2538V54.6233C75.8792 44.5189 75.925 38.8397 75.9964 38.5644C76.0829 38.2467 76.2321 37.9495 76.4352 37.6904C76.6384 37.4312 76.8913 37.2153 77.1792 37.0554C77.6686 36.8056 77.847 36.7801 79.7282 36.7801C81.4972 36.7801 81.8082 36.8056 82.2058 37.0197V37.0197Z" fill="black"/>
</svg>
