<svg width="86" height="86" viewBox="0 0 86 86" fill="none" xmlns="http://www.w3.org/2000/svg">
<path d="M42.8595 0C66.5286 0 85.7189 19.1903 85.7189 42.8595C85.7189 66.5286 66.5286 85.7189 42.8595 85.7189C19.1903 85.7189 0 66.5286 0 42.8595C0 19.1903 19.1903 0 42.8595 0ZM34.3411 57.1388C34.9662 59.4425 34.8983 61.5962 34.2554 63.5392L34.0233 64.182C33.9375 64.3999 33.8375 64.6106 33.7447 64.8107C33.2447 65.8464 32.5803 66.8108 31.7624 67.7037C29.2694 70.4145 25.7907 71.4432 24.2977 70.5788C22.6905 69.6431 23.4906 65.8107 26.3836 62.757C29.4945 59.4782 33.9554 57.3674 33.9554 57.3674V57.3567L34.3411 57.1388ZM69.7395 18.3474C67.8037 10.7292 55.178 8.22545 43.2309 12.4721C36.127 14.9972 28.4301 18.9653 22.8977 24.1406C16.3152 30.2874 15.2687 35.6448 15.7008 37.8842C17.2259 45.7811 28.0479 50.9456 32.4982 54.778V54.7994C31.1874 55.4423 21.5833 60.2604 19.3332 65.2464C16.9223 70.4967 19.7082 74.2505 21.5297 74.729C27.155 76.2863 32.9411 73.4433 36.0484 68.8394C39.0485 64.3356 38.7842 58.5496 37.4913 55.7102C39.2628 55.228 41.3487 55.0137 44.0274 55.3387C51.5314 56.1959 53.0314 60.9104 52.7064 62.8391C52.385 64.7642 50.8385 65.8893 50.2992 66.2107C49.7634 66.5357 49.6027 66.6393 49.6527 66.8572C49.7063 67.1786 49.9777 67.1786 50.4027 67.1251C50.992 67.0179 54.3172 65.5178 54.478 61.8712C54.6387 57.2638 50.242 52.1243 42.4237 52.2278C39.2093 52.285 37.1699 52.5528 35.7269 53.1422C35.6292 52.9926 35.5015 52.8649 35.3519 52.7671C30.5302 47.5704 21.5833 43.9274 21.9583 37.0163C22.0655 34.4983 22.9762 27.8587 39.1021 19.8225C52.335 13.2293 62.8927 15.0544 64.7142 19.0725C67.3322 24.8013 59.0853 35.4662 45.3167 37.0163C40.0665 37.6056 37.3342 35.5734 36.6341 34.8197C35.8877 34.0161 35.7805 33.9626 35.5126 34.1269C35.084 34.3411 35.3519 35.0376 35.5126 35.4662C35.9412 36.5377 37.602 38.4128 40.4986 39.3771C43.013 40.1807 49.1777 40.6593 56.5709 37.7699C64.8714 34.559 71.3539 25.6085 69.4788 18.1081L69.7395 18.3474Z" fill="black"/>
</svg>
