<svg width="86" height="129" viewBox="0 0 86 129" fill="none" xmlns="http://www.w3.org/2000/svg">
<path d="M42.8595 64.2892C42.8595 58.6057 45.1172 53.1549 49.1361 49.1361C53.1549 45.1172 58.6057 42.8595 64.2892 42.8595C69.9727 42.8595 75.4234 45.1172 79.4423 49.1361C83.4612 53.1549 85.7189 58.6057 85.7189 64.2892C85.7189 69.9727 83.4612 75.4234 79.4423 79.4423C75.4234 83.4612 69.9727 85.7189 64.2892 85.7189C58.6057 85.7189 53.1549 83.4612 49.1361 79.4423C45.1172 75.4234 42.8595 69.9727 42.8595 64.2892ZM0 107.149C0 101.465 2.25777 96.0144 6.27662 91.9956C10.2955 87.9767 15.7462 85.7189 21.4297 85.7189H42.8595V107.149C42.8595 112.832 40.6017 118.283 36.5828 122.302C32.564 126.321 27.1132 128.578 21.4297 128.578C15.7462 128.578 10.2955 126.321 6.27662 122.302C2.25777 118.283 0 112.832 0 107.149ZM42.8595 0V42.8595H64.2892C69.9727 42.8595 75.4234 40.6017 79.4423 36.5828C83.4612 32.564 85.7189 27.1132 85.7189 21.4297C85.7189 15.7462 83.4612 10.2955 79.4423 6.27662C75.4234 2.25777 69.9727 0 64.2892 0L42.8595 0ZM0 21.4297C0 27.1132 2.25777 32.564 6.27662 36.5828C10.2955 40.6017 15.7462 42.8595 21.4297 42.8595H42.8595V0H21.4297C15.7462 0 10.2955 2.25777 6.27662 6.27662C2.25777 10.2955 0 15.7462 0 21.4297ZM0 64.2892C0 69.9727 2.25777 75.4234 6.27662 79.4423C10.2955 83.4612 15.7462 85.7189 21.4297 85.7189H42.8595V42.8595H21.4297C15.7462 42.8595 10.2955 45.1172 6.27662 49.1361C2.25777 53.1549 0 58.6057 0 64.2892Z" fill="black"/>
</svg>
