<svg width="99" height="99" viewBox="0 0 99 99" fill="none" xmlns="http://www.w3.org/2000/svg">
<path d="M0 0H98.6349V98.6349H0V0ZM90.555 75.1104C89.8358 70.6102 86.9055 66.8292 78.2133 63.303C75.1885 61.8852 71.8267 60.8988 70.828 58.6179C70.4541 57.2616 70.3965 56.5219 70.639 55.7205C71.2555 53.0656 74.3995 52.2683 76.8653 53.008C78.4681 53.5012 79.9477 54.7341 80.8765 56.7068C85.126 53.9286 85.126 53.9286 88.0892 52.0833C86.9795 50.3572 86.4288 49.6133 85.6808 48.8777C83.0917 45.9803 79.6435 44.5008 74.0337 44.6282L71.1363 44.9939C68.3581 45.6721 65.7114 47.1516 64.1086 49.1243C59.4234 54.43 60.7755 63.677 66.447 67.4991C72.0569 71.6911 80.26 72.6117 81.308 76.5612C82.2944 81.3697 77.7325 82.9108 73.2282 82.356C69.8951 81.6162 68.0498 79.9477 66.0155 76.8653L58.4946 81.1847C59.3576 83.1574 60.344 84.0164 61.8235 85.7425C68.9745 92.9593 86.8521 92.5894 90.0619 81.6162C90.181 81.2464 91.0482 78.7188 90.366 74.8351L90.555 75.1104ZM53.6368 45.335H44.398C44.398 53.2998 44.361 61.2153 44.361 69.1924C44.361 74.2556 44.6199 78.9038 43.7939 80.334C42.4377 83.1656 38.9443 82.804 37.358 82.3067C35.7305 81.5012 34.9044 80.3915 33.9468 78.7928C33.6879 78.3613 33.4948 77.9873 33.4249 77.9873L25.9245 82.6108C27.178 85.2 29.0069 87.4275 31.3659 88.8454C34.8798 90.9413 39.6019 91.6195 44.546 90.5098C47.7639 89.581 50.538 87.67 51.9888 84.7109C54.0848 80.8888 53.6409 76.2037 53.6204 70.9596C53.6697 62.5181 53.6204 54.0725 53.6204 45.5652L53.6368 45.335Z" fill="black"/>
</svg>
