<svg width="86" height="86" viewBox="0 0 86 86" fill="none" xmlns="http://www.w3.org/2000/svg">
<path d="M42.6317 0.000366518C39.0479 0.0106101 35.4791 0.464055 32.0066 1.35038C15.2922 5.50398 2.0278 20.647 0.327783 37.8149C-1.77938 54.0615 6.42783 70.9795 20.4851 79.3688C34.2745 88.0046 52.9603 87.6546 66.464 78.5724C78.5962 70.6938 86.1499 56.3294 85.6999 41.84C85.4927 27.497 77.4498 13.5648 65.1319 6.19684C58.4104 2.05038 50.5139 -0.0317766 42.6317 0.000366518ZM42.4067 6.05756C60.0675 6.03256 77.3677 19.6791 79.1284 37.9328C82.5034 58.1472 65.7247 78.6938 45.2424 79.2903C25.7637 81.2331 6.93855 64.7187 6.38497 45.1579C4.93139 29.322 15.3708 13.604 30.3066 8.37186C34.1561 6.83837 38.263 6.05408 42.4067 6.06113V6.05756ZM60.589 17.5755C50.9925 25.022 41.8031 32.9613 32.4137 40.6364C36.7102 40.6971 41.0281 40.6935 45.346 40.6721C50.3817 32.9399 55.5568 25.3113 60.589 17.5755ZM40.3567 44.9114C35.3209 52.6472 30.1423 60.3008 25.1065 68.033C34.7245 60.6044 43.8745 52.6043 53.3282 44.9757C49.0046 44.9235 44.6806 44.9021 40.3567 44.9114Z" fill="black"/>
</svg>
