<svg width="86" height="84" viewBox="0 0 86 84" fill="none" xmlns="http://www.w3.org/2000/svg">
<path d="M42.8595 0C19.1796 0 0 19.1903 0 42.8595C0 61.7998 12.2792 77.8614 29.3052 83.5224C31.4481 83.926 32.2339 82.6009 32.2339 81.4615C32.2339 80.4436 32.1982 77.7471 32.1803 74.1754C20.2582 76.7613 17.7438 68.4251 17.7438 68.4251C15.7937 63.4784 12.9757 62.1569 12.9757 62.1569C9.09335 59.4996 13.2757 59.5532 13.2757 59.5532C17.5795 59.8532 19.8404 63.9677 19.8404 63.9677C23.662 70.5217 29.873 68.6287 32.3232 67.5322C32.7089 64.7606 33.8125 62.8713 35.0376 61.7998C25.5192 60.7283 15.5151 57.0424 15.5151 40.6201C15.5151 35.9412 17.1759 32.1196 19.9261 29.1194C19.4439 28.0372 17.9974 23.6799 20.3011 17.776C20.3011 17.776 23.8906 16.6259 32.0875 22.1691C35.5162 21.2154 39.1593 20.744 42.8023 20.7226C46.4454 20.744 50.0884 21.2154 53.5172 22.1691C61.6605 16.6259 65.25 17.776 65.25 17.776C67.5536 23.6799 66.1071 28.0372 65.6786 29.1194C68.4108 32.1196 70.0716 35.9412 70.0716 40.6201C70.0716 57.0852 60.0532 60.7104 50.517 61.7641C52.0171 63.0498 53.41 65.6786 53.41 69.6931C53.41 75.4291 53.3565 80.0365 53.3565 81.4294C53.3565 82.5545 54.1065 83.8938 56.303 83.4652C73.4504 77.8435 85.7189 61.7712 85.7189 42.8595C85.7189 19.1903 66.5286 0 42.8595 0Z" fill="black"/>
</svg>
