<svg width="296" height="296" viewBox="0 0 296 296" fill="none" xmlns="http://www.w3.org/2000/svg">
<path d="M264.031 83.9357C274.362 102.838 280.241 124.52 280.241 147.579C280.241 196.514 253.725 239.275 214.285 262.26L254.808 145.095C262.371 126.156 264.892 111.016 264.892 97.5744C264.892 92.5936 264.573 87.9818 264.031 83.9234M165.879 85.2147C173.836 84.8457 181.03 83.9234 181.03 83.9234C188.188 83.001 187.352 72.486 180.206 72.8672C180.206 72.8672 158.623 74.5275 144.787 74.5275C131.702 74.5275 109.737 72.6827 109.737 72.6827C102.543 72.3138 101.608 83.1978 108.815 83.5667C108.815 83.5667 115.456 84.3169 122.651 84.6736L143.312 141.307L114.165 228.379L65.8449 84.858C73.8265 84.4891 81.021 83.6282 81.021 83.6282C88.2154 82.7058 87.3669 72.1908 80.2216 72.609C80.2216 72.609 58.7488 74.3061 44.8764 74.3061C42.4167 74.3061 39.4897 74.2077 36.3906 74.1216C60.3968 38.7395 101.276 14.9424 147.579 14.9424C182.125 14.9424 213.559 28.1261 237.184 49.7834C236.619 49.7465 236.065 49.6727 235.45 49.6727C222.414 49.6727 213.166 61.024 213.166 73.2116C213.166 84.157 219.475 93.4176 226.202 104.338C231.257 113.193 237.147 124.545 237.147 140.95C237.147 152.203 232.794 165.473 227.051 183.736L213.83 227.825L165.867 85.0425L165.879 85.2147V85.2147ZM147.579 280.204C134.555 280.204 121.986 278.322 110.094 274.829L149.904 159.152L190.672 270.906C190.967 271.558 191.287 272.148 191.632 272.739C177.857 277.572 163.038 280.228 147.579 280.228M14.8932 147.579C14.8932 128.345 19.0254 110.069 26.3921 93.5898L89.6543 266.983C67.2441 256.101 48.3484 239.132 35.1277 218.017C21.907 196.901 14.8949 172.492 14.8932 147.579M147.579 0C66.2262 0 0 66.2262 0 147.579C0 228.932 66.2262 295.158 147.579 295.158C228.932 295.158 295.158 228.932 295.158 147.579C295.158 66.2262 228.932 0 147.579 0Z" fill="black"/>
</svg>
