<svg width="86" height="86" viewBox="0 0 86 86" fill="none" xmlns="http://www.w3.org/2000/svg">
<path d="M42.8595 0C31.4924 0 20.591 4.51554 12.5532 12.5532C4.51554 20.591 0 31.4924 0 42.8595C0 54.2265 4.51554 65.128 12.5532 73.1657C20.591 81.2034 31.4924 85.7189 42.8595 85.7189C54.2265 85.7189 65.128 81.2034 73.1657 73.1657C81.2034 65.128 85.7189 54.2265 85.7189 42.8595C85.7189 31.4924 81.2034 20.591 73.1657 12.5532C65.128 4.51554 54.2265 0 42.8595 0V0ZM33.6661 25.4299C36.0925 25.4446 38.4955 25.9047 40.7558 26.7872V31.0052C38.2998 29.6406 35.529 28.9436 32.7196 28.9837C30.9705 28.9256 29.2291 29.2419 27.6122 29.9114C25.9953 30.581 24.5401 31.5884 23.3441 32.8661C20.8371 35.7251 19.5408 39.4474 19.7296 43.2452C19.5427 46.8367 20.7521 50.3614 23.1048 53.0814C24.2321 54.2929 25.6079 55.2466 27.1379 55.8772C28.6679 56.5078 30.316 56.8005 31.9696 56.7352C35.0564 56.8119 38.1036 56.0278 40.7701 54.4708L40.7558 58.3282C37.8401 59.7467 34.6206 60.4274 31.3803 60.3104C29.2395 60.4042 27.1033 60.0393 25.1149 59.2404C23.1266 58.4415 21.3319 57.2269 19.8511 55.678C16.8729 52.3408 15.3192 47.9706 15.5223 43.5024C15.4189 41.1065 15.797 38.7142 16.6344 36.467C17.4718 34.2198 18.7514 32.1634 20.3975 30.4195C22.0056 28.7736 23.9393 27.4812 26.0752 26.6252C28.2111 25.7691 30.5021 25.3681 32.8018 25.4478C32.9446 25.4415 33.0875 25.4367 33.2304 25.4335C33.3756 25.4319 33.5209 25.4319 33.6661 25.4335V25.4299ZM54.6065 25.9835H57.5924L55.6102 35.4555H61.5426L63.5677 25.9835H66.4607L64.4785 35.4555L70.6645 35.4412L70.1288 37.9306H63.9677L62.4962 45.0024H69.1109L68.4823 47.4954H61.9962L59.9247 56.8709H56.9602L58.9853 47.4954H53.0922L51.1099 56.8709H48.2169L50.1991 47.4954H43.9845L44.4524 45.0024H50.6956L52.1278 37.9449H45.606L46.0989 35.4555H52.6207L54.6065 25.9835ZM55.1137 37.9306L53.5743 45.0024H59.5497L61.0605 37.9306H55.1137Z" fill="black"/>
</svg>
