<svg width="76" height="75" viewBox="0 0 76 75" fill="none" xmlns="http://www.w3.org/2000/svg">
<path d="M72.566 7.91459L57.0813 0.463759C56.2062 0.0423387 55.2217 -0.0965562 54.2642 0.0663086C53.3066 0.229173 52.4234 0.685739 51.7369 1.37278L22.084 28.424L9.16964 18.6191C8.587 18.1772 7.86807 17.9531 7.13751 17.9857C6.40696 18.0183 5.71087 18.3056 5.16995 18.7978L1.02608 22.5655C0.703156 22.859 0.445091 23.2168 0.268402 23.6158C0.091714 24.0149 0.000295784 24.4464 7.16571e-07 24.8828C-0.000294351 25.3192 0.0905402 25.7509 0.266689 26.1501C0.442838 26.5494 0.700419 26.9075 1.02294 27.2015L12.2227 37.4201L1.02294 47.6388C0.700419 47.9328 0.442838 48.2908 0.266689 48.6901C0.0905402 49.0894 -0.000294351 49.5211 7.16571e-07 49.9575C0.000295784 50.3939 0.091714 50.8254 0.268402 51.2244C0.445091 51.6235 0.703156 51.9812 1.02608 52.2748L5.17309 56.0394C5.714 56.5315 6.4101 56.8188 7.14065 56.8514C7.8712 56.884 8.59014 56.66 9.17278 56.218L22.0871 46.4132L51.74 73.4643C52.4258 74.1515 53.3085 74.6082 54.2656 74.7711C55.2227 74.934 56.2067 74.795 57.0813 74.3734L72.5722 66.9225C73.3692 66.5379 74.0414 65.9361 74.5117 65.1864C74.9819 64.4367 75.231 63.5696 75.2303 62.6846V12.1525C75.2304 11.2669 74.9804 10.3992 74.509 9.64949C74.0376 8.89974 73.3641 8.29836 72.566 7.91459ZM56.4356 54.4972L33.9357 37.4201L56.4356 20.3431V54.4972Z" fill="black"/>
</svg>
