<svg width="163" height="163" viewBox="0 0 163 163" fill="none" xmlns="http://www.w3.org/2000/svg">
<path d="M138.067 138.101H114.069V100.496C114.069 91.5292 113.886 79.9893 101.563 79.9893C89.051 79.9893 87.1401 89.7465 87.1401 99.8347V138.101H63.142V60.7719H86.1948V71.3124H86.5054C89.7263 65.2352 97.5591 58.8204 109.261 58.8204C133.577 58.8204 138.074 74.8237 138.074 95.6549V138.101H138.067ZM36.0377 50.1908C34.207 50.1917 32.394 49.8315 30.7027 49.131C29.0113 48.4304 27.4747 47.4031 26.1808 46.1079C24.8869 44.8128 23.8611 43.2752 23.1621 41.5831C22.4632 39.8911 22.1048 38.0778 22.1075 36.247C22.1088 33.4906 22.9275 30.7964 24.46 28.5052C25.9925 26.214 28.1701 24.4287 30.7172 23.3751C33.2644 22.3215 36.0668 22.0468 38.7701 22.5859C41.4733 23.125 43.956 24.4535 45.9042 26.4036C47.8524 28.3537 49.1786 30.8377 49.715 33.5414C50.2515 36.2452 49.9741 39.0474 48.918 41.5935C47.8619 44.1396 46.0745 46.3154 43.7818 47.8458C41.4892 49.3761 38.7942 50.1921 36.0377 50.1908ZM48.0705 138.101H24.0049V60.7719H48.0705V138.101ZM150.073 0H11.9586C5.34792 0 0 5.22638 0 11.675V150.383C0 156.839 5.34792 162.058 11.9586 162.058H150.053C156.656 162.058 162.058 156.839 162.058 150.383V11.675C162.058 5.22638 156.656 0 150.053 0H150.073Z" fill="black"/>
</svg>
