<svg width="86" height="38" viewBox="0 0 86 38" fill="none" xmlns="http://www.w3.org/2000/svg">
<path d="M57.9103 0L57.6424 1.3965C57.2281 4.04308 57.3781 4.80026 58.5139 5.78245L59.6104 6.68965L58.4746 11.7542C57.796 14.7758 56.9638 17.3081 56.4352 18.1403C55.9816 18.8582 55.453 19.9154 55.3387 20.4832C55.1494 21.1619 54.5065 21.844 53.5243 22.4476C52.6564 22.9405 50.9528 24.262 49.7456 25.3228C48.7812 26.1907 48.1169 26.7229 47.7562 26.9515L46.5775 27.8837C46.2744 28.3331 46.0464 28.8289 45.9025 29.3516C45.8203 29.7337 45.8668 29.9873 45.9882 30.1731C46.1061 30.3516 46.3096 30.4767 46.5882 30.5552C46.918 30.6325 47.2575 30.6602 47.5954 30.6374C48.36 30.5851 49.1167 30.451 49.8527 30.2374C50.1027 30.1695 50.2991 30.1052 50.4706 30.0481C50.7349 29.723 51.3456 29.1087 52.4278 28.0408C55.2994 25.2085 56.3959 23.6584 55.2637 24.0763C54.8458 24.2263 55.0351 23.8477 55.753 23.0905C57.2674 21.6155 58.1353 19.3868 59.9497 12.3971C61.3855 6.87894 61.3855 6.80037 62.4427 6.80037C62.9391 6.80037 64.3428 6.88609 64.3428 6.88609V0H61.1212H57.9103ZM71.6217 11.3042C71.3932 11.3042 71.0146 11.6471 70.7895 12.0257C70.3752 12.7043 70.8645 13.1186 77.1006 17.0116C80.8044 19.3582 83.7902 21.3583 83.7152 21.5119C83.6402 21.6226 80.6151 23.5906 76.9899 25.8585C70.4109 29.9373 70.3752 29.9766 70.9788 30.8088C71.736 31.791 70.9788 32.1303 79.5186 26.8014L85.7189 22.8334V19.8475L78.8007 15.5758C75.0612 13.2329 71.811 11.3435 71.6217 11.3042ZM14.1722 11.7221C13.9829 11.7221 10.7327 13.6507 6.99324 15.9544L0 20.2261V23.212L6.95395 27.5586C10.8113 29.9373 14.0615 31.9053 14.2115 31.9053C14.3615 31.9053 14.6651 31.5624 14.9687 31.1481C15.4223 30.4302 15.0401 30.1266 8.65404 26.0836C2.57157 22.2655 1.92868 21.7369 2.53585 21.3226C2.91444 21.0583 5.78603 19.2796 8.8862 17.3545C15.9544 13.0078 15.5758 13.3079 15.008 12.4007C14.7829 12.0257 14.4008 11.6863 14.1758 11.7221H14.1722ZM45.1882 11.8042C44.1452 11.7971 41.9023 13.3864 35.1876 18.8689C34.8983 19.5582 34.8733 20.0332 35.0055 20.3404C35.0912 20.5511 35.2483 20.6975 35.4662 20.8047C35.6805 20.9118 35.9591 20.9761 36.2663 21.0011C36.877 21.0547 37.5985 20.9583 38.1806 20.844L38.5735 20.7547C38.708 20.5744 38.8846 20.4297 39.0878 20.3332C39.5021 20.1047 41.2415 18.5189 42.9809 16.8188C46.0418 13.7186 46.7597 12.3185 45.5132 11.8649C45.4109 11.8242 45.3018 11.8036 45.1917 11.8042H45.1882ZM53.0314 13.9579C52.1135 13.9829 50.4599 15.0472 47.6276 17.3081C46.2061 18.4617 45.306 19.0832 44.8239 19.2118L42.9523 20.6904C42.2487 21.9762 42.1451 22.7727 42.3309 23.212C42.3773 23.3203 42.4448 23.4184 42.5294 23.5006C42.614 23.5827 42.7141 23.6473 42.8237 23.6906C43.0966 23.7983 43.3876 23.8529 43.6809 23.8513C44.382 23.8438 45.0788 23.7417 45.7525 23.5477C46.1036 23.4535 46.4504 23.3438 46.7918 23.2191L46.8954 23.1763L47.0847 23.0762C47.4419 22.6155 48.2633 21.7476 49.292 20.7476C52.5421 17.6117 54.2029 15.383 53.8636 14.5508C53.7101 14.1472 53.4457 13.9436 53.0314 13.9579ZM44.3738 17.8153C44.1095 17.8438 43.5166 18.301 42.4487 19.2368C40.9058 20.6011 39.2236 21.3869 38.6414 21.0369C38.5061 21.0674 38.3703 21.096 38.2342 21.1226C37.6413 21.2404 36.902 21.3369 36.2412 21.2833C35.9299 21.2644 35.6248 21.1882 35.3412 21.0583C35.0737 20.936 34.8603 20.72 34.7412 20.4511C34.609 20.1297 34.609 19.7296 34.759 19.2189L32.4375 21.1261L27.1836 25.4728V32.5196L44.3988 18.9582C44.3955 18.8097 44.4148 18.6615 44.456 18.5189C44.5881 18.0403 44.581 17.7974 44.3738 17.8188V17.8153ZM51.7814 20.0975C51.5206 20.0975 51.0849 20.4654 50.3884 21.2047C49.442 22.2155 47.9526 23.1941 47.1633 23.3941L47.0418 23.4584C46.9122 23.5119 46.7812 23.5619 46.649 23.6084C46.4347 23.6799 46.1561 23.7656 45.8346 23.8513C45.1917 24.0263 44.3917 24.187 43.6774 24.1692C43.3406 24.1687 43.0071 24.1032 42.6952 23.9763C42.4012 23.8551 42.1656 23.6247 42.038 23.3334C41.8308 22.837 41.913 22.1405 42.3666 21.1511L27.18 33.1125V37.4163H33.8518L48.0026 26.3014C48.3705 25.8943 48.9241 25.3371 49.6705 24.6406C51.6707 22.7869 52.1242 22.1476 52.1242 21.2011C52.1242 20.4654 52.0421 20.0939 51.7814 20.0939V20.0975ZM55.1494 27.0622L53.9386 28.2694C53.26 28.9123 52.0492 29.7052 51.2206 30.0445L51.0563 30.1159L51.0456 30.1338L51.0099 30.1695C50.9778 30.1945 50.9635 30.1981 50.9385 30.2088C50.6077 30.334 50.2716 30.4448 49.9313 30.5409C49.1745 30.7612 48.3961 30.8989 47.6097 30.9517C47.2379 30.9755 46.8646 30.943 46.5025 30.8552C46.1883 30.7861 45.9109 30.6028 45.7239 30.3409C45.5525 30.0766 45.5025 29.723 45.5989 29.2873C45.6756 28.9771 45.7895 28.6773 45.9382 28.3944L34.5197 37.4163H49.7063L51.5206 35.3376C54.0136 32.4303 55.1494 30.3516 55.1494 28.573V27.0622Z" fill="black"/>
</svg>
