<svg width="86" height="86" viewBox="0 0 86 86" fill="none" xmlns="http://www.w3.org/2000/svg">
<path d="M84.0976 39.0378L46.6705 1.61428C45.6329 0.580469 44.2278 0 42.7631 0C41.2984 0 39.8934 0.580469 38.8557 1.61428L31.1017 9.38257L40.9594 19.2403C42.1224 18.8463 43.3727 18.7863 44.568 19.0673C45.7634 19.3483 46.856 19.959 47.7216 20.8298C48.5873 21.7007 49.1914 22.797 49.4652 23.994C49.739 25.191 49.6716 26.4408 49.2706 27.6014L58.764 37.102C60.169 36.6135 61.6982 36.6166 63.1012 37.1108C64.5042 37.6051 65.6977 38.5612 66.4863 39.8224C67.2748 41.0837 67.6116 42.5754 67.4416 44.0531C67.2715 45.5308 66.6046 46.907 65.5501 47.9562C64.9407 48.5665 64.2169 49.0508 63.4202 49.3811C62.6235 49.7115 61.7695 49.8816 60.907 49.8816C60.0445 49.8816 59.1904 49.7115 58.3937 49.3811C57.597 49.0508 56.8733 48.5665 56.2639 47.9562C55.3507 47.0404 54.727 45.8762 54.4704 44.6087C54.2138 43.3411 54.3357 42.026 54.8209 40.8272L45.9311 31.9838V55.2887C46.5597 55.5959 47.1526 56.0138 47.6741 56.5316C48.8973 57.7674 49.5834 59.436 49.5834 61.1748C49.5834 62.9135 48.8973 64.5821 47.6741 65.8179C47.0624 66.4301 46.3361 66.9157 45.5367 67.2471C44.7372 67.5785 43.8803 67.749 43.0149 67.749C42.1495 67.749 41.2926 67.5785 40.4931 67.2471C39.6937 66.9157 38.9674 66.4301 38.3557 65.8179C37.7451 65.2093 37.2607 64.4863 36.9301 63.6901C36.5996 62.894 36.4294 62.0404 36.4294 61.1783C36.4294 60.3163 36.5996 59.4627 36.9301 58.6666C37.2607 57.8704 37.7451 57.1473 38.3557 56.5388C39.0058 55.8959 39.7379 55.4101 40.5166 55.0887V31.5552C39.7148 31.2275 38.986 30.7439 38.3723 30.1326C37.7586 29.5213 37.2723 28.7944 36.9415 27.9938C36.6107 27.1933 36.4419 26.3351 36.4449 25.469C36.448 24.6028 36.6228 23.7458 36.9592 22.9476L27.273 13.2149L1.60723 38.8628C-0.535744 41.0236 -0.535744 44.5202 1.60723 46.6811L39.0379 84.101C39.5504 84.614 40.1589 85.0209 40.8288 85.2986C41.4986 85.5762 42.2166 85.7191 42.9417 85.7191C43.6668 85.7191 44.3848 85.5762 45.0546 85.2986C45.7244 85.0209 46.333 84.614 46.8455 84.101L84.0976 46.849C84.6115 46.3366 85.0192 45.728 85.2975 45.0578C85.5757 44.3876 85.7189 43.669 85.7189 42.9434C85.7189 42.2177 85.5757 41.4992 85.2975 40.829C85.0192 40.1588 84.6115 39.5501 84.0976 39.0378Z" fill="black"/>
</svg>
