<svg width="99" height="99" viewBox="0 0 99 99" fill="none" xmlns="http://www.w3.org/2000/svg">
<path d="M0 49.3174V98.6349H98.6349V0H0V49.3174ZM79.4874 45.3885C81.9943 46.0132 83.9013 47.1269 85.6562 48.9434C86.5644 49.9134 87.9124 51.6806 88.0193 52.108C88.0522 52.2313 83.7616 55.1081 81.1642 56.7233C81.0696 56.7849 80.6915 56.378 80.2723 55.7534C78.9983 53.904 77.6708 53.1067 75.6365 52.9669C72.6446 52.7614 70.7212 54.3273 70.7376 56.9411C70.7104 57.5839 70.8551 58.2223 71.1568 58.7905C71.8144 60.1508 73.0391 60.9687 76.8694 62.6249C83.9342 65.6662 86.9548 67.6676 88.833 70.5157C90.929 73.6926 91.4016 78.7682 89.9755 82.5409C88.4138 86.6425 84.5301 89.4289 79.0641 90.3495C77.3749 90.6495 73.3679 90.6043 71.5514 90.2756C67.5895 89.5687 63.8332 87.6124 61.5153 85.0438C60.607 84.0451 58.8357 81.4272 58.9467 81.2422C59.2315 81.0245 59.5339 80.8306 59.8508 80.6628C60.2947 80.4121 61.9509 79.4545 63.5167 78.5462L66.3525 76.9023L66.9484 77.7818C67.7786 79.0476 69.591 80.7861 70.6883 81.3655C73.8364 83.0259 78.1558 82.7916 80.2847 80.8806C80.7128 80.52 81.0516 80.0652 81.2748 79.5519C81.498 79.0386 81.5993 78.4806 81.571 77.9215C81.571 76.779 81.4272 76.2776 80.8313 75.4146C80.0668 74.3214 78.501 73.4008 74.0542 71.4692C68.9663 69.2787 66.7758 67.9183 64.7702 65.7566C63.5185 64.3299 62.594 62.6467 62.0619 60.8248C61.6879 59.4316 61.5934 55.9383 61.8893 54.5328C62.9373 49.6133 66.6484 46.1899 72.0035 45.1707C73.7419 44.8419 77.7818 44.9652 79.4874 45.3885ZM56.3328 49.5065L56.3657 53.5464H43.5226V90.0249H34.44V53.5464H21.6093V49.5846C21.6093 47.3899 21.6545 45.557 21.7161 45.5159C21.7654 45.4501 29.5781 45.4172 39.0471 45.4337L56.2876 45.483L56.3328 49.5065Z" fill="black"/>
</svg>
