<svg width="86" height="89" viewBox="0 0 86 89" fill="none" xmlns="http://www.w3.org/2000/svg">
<path d="M61.5821 0C58.1491 0.0255365 54.736 0.524795 51.4396 1.48364L51.2076 1.55727C49.1284 1.18981 47.0234 0.986703 44.9123 0.949825C40.5755 0.876195 36.8498 1.9291 33.8457 3.68149C30.8858 2.65436 24.7451 0.883559 18.273 1.23698C13.7668 1.48364 8.84836 2.85316 5.20369 6.70032C1.57005 10.5475 -0.351689 16.5005 0.0532756 24.5997C0.16372 26.8344 0.800619 30.4791 1.85721 35.1988C2.9138 39.9184 4.39744 45.4444 6.24923 50.4843C8.10102 55.528 10.1295 60.0562 13.2993 63.1339C14.8823 64.6765 17.0618 65.9724 19.6315 65.8656C21.4354 65.792 23.0663 65.0005 24.4726 63.8334C25.1574 64.7354 25.89 65.1293 26.5563 65.4938C27.3957 65.954 28.213 66.2669 29.0598 66.4731C30.5802 66.8522 33.183 67.3603 36.2313 66.8412C37.2695 66.6682 38.3629 66.3295 39.4526 65.8472C39.4931 67.0621 39.541 68.2512 39.5888 69.4551C39.7398 73.2691 39.8355 76.7923 40.9804 79.8811C41.1645 80.3854 41.6689 82.9846 43.6569 85.2781C45.6449 87.5754 49.5399 89.0075 53.9761 88.0577C57.1054 87.3876 61.0851 86.1801 63.7284 82.4176C66.3423 78.6993 67.5203 73.3648 67.7523 64.7133C67.8049 64.2987 67.8724 63.8861 67.9548 63.4763L68.5769 63.5315H68.6506C71.9897 63.6825 75.6123 63.2076 78.6384 61.8012C81.3186 60.5606 83.3471 59.3052 84.8234 57.0779C85.1915 56.5257 85.5965 55.8593 85.7069 54.7107C85.8174 53.5621 85.1584 51.7655 84.065 50.9371C81.8745 49.2731 80.4976 49.9063 79.0213 50.2119C77.5671 50.5334 76.0851 50.7134 74.5962 50.7494C78.852 43.5815 81.9039 35.9682 83.6453 29.2311C84.6761 25.255 85.2541 21.5883 85.3019 18.3817C85.3498 15.1751 85.0884 12.3367 83.1667 9.88113C77.1622 2.2089 68.7205 0.0883558 62.1895 0.014726C61.987 0.0110445 61.7846 0.00736299 61.5821 0.0110445V0ZM61.409 2.35616C67.5866 2.29725 75.4797 4.03124 81.1455 11.2727C82.4193 12.9 82.7985 15.2782 82.7544 18.2087C82.7065 21.1355 82.1653 24.6402 81.175 28.48C79.2533 35.9167 75.6233 44.5866 70.5097 52.3656C70.6903 52.4939 70.8856 52.6002 71.0914 52.6822C72.159 53.124 74.5925 53.5032 79.4484 52.5055C80.6706 52.2478 81.5652 52.0747 82.493 52.7816C82.7184 52.9727 82.8966 53.2134 83.0135 53.4848C83.1303 53.7563 83.1828 54.0511 83.1667 54.3462C83.1171 54.7931 82.9522 55.2194 82.6881 55.5832C81.7493 56.9932 79.8975 58.3296 77.5229 59.4304C75.4208 60.4096 72.4057 60.9214 69.7329 60.9508C68.3928 60.9655 67.1559 60.8625 66.1066 60.5348L66.0404 60.509C65.6354 64.4114 64.704 72.1168 64.0965 75.6326C63.6106 78.4674 62.7602 80.7204 61.1366 82.4066C59.5168 84.0927 57.2232 85.1088 54.1381 85.7714C50.3167 86.5924 47.5298 85.7089 45.7332 84.1958C43.9404 82.6864 43.1194 80.6836 42.6261 79.4577C42.2874 78.6109 42.1107 77.5138 41.9413 76.0486C41.772 74.5834 41.6468 72.7905 41.5621 70.7694C41.4493 67.6746 41.4125 64.5775 41.4517 61.4809C39.8554 62.943 37.8717 63.9144 35.738 64.2789C33.2014 64.7096 30.9373 64.2862 29.5862 63.9475C28.9202 63.7803 28.2772 63.5317 27.6718 63.2076C27.046 62.8726 26.4496 62.4934 26.052 61.746C25.8184 61.318 25.744 60.821 25.8421 60.3434C25.9666 59.8592 26.249 59.4303 26.6447 59.1248C27.3736 58.5321 28.3382 58.2007 29.7924 57.8989C32.4394 57.354 33.3634 56.9822 33.9267 56.5367C34.4053 56.1538 34.9465 55.3807 35.9037 54.2468C35.8991 54.1966 35.8954 54.1462 35.8926 54.0959C34.1796 54.0477 32.502 53.5961 30.9962 52.7779C30.444 53.3596 27.624 56.3416 24.1855 60.4796C22.7386 62.2099 21.1409 63.2039 19.4547 63.2738C17.7686 63.3475 16.2445 62.497 14.9486 61.2416C12.3605 58.7272 10.2952 54.4014 8.49494 49.5124C6.69837 44.6234 5.23682 39.1785 4.19864 34.5398C3.15677 29.9011 2.54197 26.1607 2.45361 24.3568C2.06705 16.6919 3.85994 11.5268 6.93399 8.26863C10.0117 5.01051 14.2307 3.77721 18.3429 3.5416C25.7243 3.11823 32.7339 5.69159 34.1513 6.24381C36.8829 4.38834 40.4024 3.23235 44.7982 3.30598C46.885 3.33525 48.9615 3.60454 50.9867 4.10855L51.0604 4.07541C51.9518 3.76207 52.8601 3.49904 53.781 3.28757C56.2815 2.70426 58.8379 2.39442 61.4054 2.36352L61.409 2.35616ZM61.9686 4.82276H61.4311C59.3219 4.85217 57.2207 5.08893 55.1579 5.5296C59.745 7.56179 63.2093 10.6911 65.6501 13.813C67.3457 15.9745 68.747 18.3514 69.8176 20.8814C70.2225 21.8533 70.495 22.6743 70.6496 23.3112C70.7269 23.6315 70.7785 23.9003 70.7969 24.18C70.8115 24.358 70.7965 24.5371 70.7527 24.7102C70.7527 24.7212 70.7343 24.747 70.7306 24.758C70.841 27.983 70.0422 30.1698 69.9464 33.2476C69.8728 35.4786 70.4434 38.0998 70.5833 40.9603C70.7159 43.6478 70.3919 46.6003 68.6469 49.4977C68.7941 49.6744 68.9267 49.8511 69.0666 50.0278C73.6832 42.7569 77.0112 34.7128 78.7857 27.8542C79.7355 24.1616 80.2399 20.8152 80.2841 18.1645C80.3209 15.5138 79.8276 13.5921 79.198 12.7895C74.2575 6.47207 67.5719 4.86325 61.9686 4.81908V4.82276ZM44.3343 5.76522C39.9828 5.77626 36.8609 7.09056 34.4937 9.06016C32.0528 11.096 30.4146 13.8829 29.3396 16.7361C28.0621 20.123 27.624 23.3996 27.451 25.6232L27.4988 25.5937C28.8131 24.8574 30.5397 24.1211 32.3878 23.6941C34.2359 23.2707 36.2276 23.1382 38.0316 23.8377C39.8355 24.5372 41.3265 26.1828 41.8677 28.6788C44.4595 40.6695 41.0614 45.1278 39.8097 48.4926C39.3349 49.7123 38.9281 50.9573 38.5912 52.222C38.7495 52.1852 38.9078 52.141 39.0661 52.1263C39.9496 52.0526 40.6417 52.3472 41.0541 52.5239C42.3131 53.0466 43.1783 54.1437 43.6458 55.3954C43.7673 55.7231 43.8557 56.0765 43.9072 56.441C43.9616 56.5906 43.9866 56.7494 43.9809 56.9085C43.8413 61.4949 43.8572 66.0847 44.0287 70.67C44.1134 72.6506 44.2386 74.3956 44.3969 75.7725C44.5552 77.1457 44.7797 78.1912 44.9233 78.5447C45.3946 79.7227 46.083 81.2653 47.3273 82.3145C48.5717 83.3601 50.3572 84.0595 53.619 83.3601C56.4464 82.7526 58.1914 81.9096 59.3585 80.6983C60.5218 79.4871 61.2176 77.801 61.6631 75.2203C62.3294 71.3547 63.6695 60.1446 63.8315 58.0351C63.7578 56.4447 63.9935 55.2224 64.5015 54.291C65.0243 53.3338 65.8342 52.7484 66.5337 52.4318C66.8834 52.2735 67.2111 52.1668 67.4798 52.0895C67.1953 51.6806 66.8969 51.2815 66.5852 50.893C65.5767 49.6699 64.7509 48.307 64.1334 46.847C63.8376 46.244 63.5221 45.651 63.1872 45.0688C62.6976 44.1853 62.0791 43.0808 61.4311 41.8402C60.1353 39.3552 58.7252 36.3437 57.9926 33.4096C57.2637 30.4791 57.1569 27.4455 59.0271 25.3066C60.6838 23.4069 63.5922 22.6191 67.9584 23.0609C67.8296 22.6743 67.7523 22.354 67.5351 21.8386C66.548 19.5152 65.2594 17.3317 63.7026 15.3445C60.0027 10.6137 54.0129 5.92352 44.7577 5.77258H44.3343V5.76522ZM19.8818 5.95666C19.4143 5.95666 18.9467 5.97138 18.4828 5.99715C14.7645 6.21068 11.2487 7.28936 8.73424 9.95476C6.2161 12.6202 4.55942 16.9901 4.92021 24.2242C4.99016 25.5937 5.58656 29.4299 6.61002 33.9876C7.62979 38.5452 9.07662 43.9092 10.8143 48.6473C12.5556 53.3853 14.6651 57.5086 16.6679 59.4598C17.6766 60.4354 18.5528 60.8293 19.348 60.7962C20.1469 60.7594 21.1077 60.2992 22.2821 58.8892C24.4233 56.3064 26.6456 53.7919 28.9456 51.3495C27.3137 49.9325 26.0647 48.1275 25.3138 46.1008C24.563 44.0741 24.3345 41.891 24.6493 39.7528C25.0285 37.0321 25.0801 34.4882 25.0359 32.4781C24.9917 30.5196 24.8518 29.2163 24.8518 28.4027C24.8512 28.3794 24.8512 28.3561 24.8518 28.3328V28.3144L24.8481 28.2923V28.2886C24.8459 24.0504 25.5835 19.8444 27.0276 15.8599C28.0584 13.1208 29.5936 10.3376 31.8945 8.08456C29.6341 7.3409 25.6212 6.207 21.2771 5.99347C20.8111 5.96954 20.3447 5.95727 19.8781 5.95666H19.8818ZM65.525 25.4023C63.0252 25.4354 61.6226 26.0797 60.8863 26.9228C59.8444 28.1192 59.745 30.2177 60.393 32.8021C61.0372 35.3902 62.3699 38.2839 63.6216 40.6879C64.2475 41.8917 64.8549 42.9741 65.3446 43.854C65.8379 44.7375 66.1987 45.3634 66.4196 45.8972C66.622 46.3905 66.8466 46.8249 67.0749 47.2299C68.0431 45.1867 68.2161 43.1802 68.1167 41.0892C67.9879 38.5011 67.3878 35.8541 67.4762 33.1739C67.5756 30.041 68.194 28.0014 68.2493 25.579C67.3459 25.462 66.4359 25.403 65.525 25.4023ZM35.2115 25.8257C34.4479 25.8328 33.6874 25.9242 32.9437 26.0981C31.4617 26.4582 30.0342 27.0141 28.699 27.7511C28.2473 27.9934 27.8174 28.2742 27.4141 28.5905L27.3331 28.6641C27.3552 29.2016 27.462 30.5049 27.5062 32.4229C27.5504 34.5214 27.4988 37.1978 27.0938 40.0951C26.214 46.3905 30.7827 51.6035 36.1503 51.6109C36.4632 50.3187 36.9787 49.008 37.4941 47.6275C38.9888 43.5999 41.9303 40.6621 39.4526 29.1979C39.0477 27.3204 38.2451 26.562 37.1406 26.1349C36.5216 25.916 35.868 25.8112 35.2115 25.8257ZM64.3579 26.5767H64.542C64.7651 26.5808 64.9872 26.6079 65.2047 26.6577C65.4035 26.7019 65.5728 26.7681 65.7127 26.8602C65.7845 26.9046 65.8462 26.9636 65.8937 27.0334C65.9413 27.1031 65.9737 27.1821 65.9888 27.2651L65.9851 27.2946H65.9888H65.9851C65.9923 27.4694 65.9475 27.6423 65.8563 27.7916C65.7477 27.9937 65.6114 28.1795 65.4513 28.3438C65.0779 28.7551 64.5777 29.0298 64.0303 29.1243C63.4976 29.1887 62.9599 29.0536 62.5209 28.7451C62.3412 28.6242 62.1799 28.4779 62.0423 28.3107C61.9231 28.1793 61.8428 28.0175 61.8103 27.8431C61.8026 27.7582 61.8124 27.6726 61.839 27.5916C61.8656 27.5105 61.9084 27.4358 61.965 27.3719C62.0858 27.2346 62.232 27.1221 62.3957 27.0406C62.7491 26.8418 63.2277 26.6945 63.7689 26.6135C63.9714 26.5841 64.1702 26.5693 64.3579 26.5657V26.5767ZM35.5686 27.1952C35.7638 27.1952 35.9699 27.2136 36.1798 27.2431C36.743 27.3204 37.2437 27.4713 37.6266 27.6922C37.8133 27.7897 37.9796 27.9222 38.1162 28.0824C38.1907 28.1675 38.2467 28.2669 38.2809 28.3746C38.3151 28.4823 38.3268 28.5959 38.315 28.7083C38.2796 28.92 38.1838 29.1169 38.0389 29.2752C37.8883 29.4601 37.7109 29.6215 37.5125 29.7538C37.0337 30.093 36.4456 30.2414 35.8632 30.1698C35.268 30.072 34.7232 29.7763 34.3169 29.3305C34.1441 29.1509 33.9978 28.9476 33.8825 28.7267C33.7612 28.5323 33.7081 28.303 33.7316 28.0751C33.7868 27.6775 34.1145 27.4713 34.4347 27.3572C34.7996 27.2406 35.1824 27.1907 35.565 27.2099L35.5686 27.1952ZM68.923 54.2284L68.9119 54.2321C68.3708 54.4272 67.9253 54.5082 67.5498 54.6739C67.17 54.8201 66.857 55.1003 66.6699 55.4617C66.438 55.8851 66.2392 56.6361 66.2981 57.9136C66.4646 58.0283 66.6486 58.1153 66.8429 58.1713C67.4725 58.3627 68.5291 58.4879 69.7071 58.4695C72.0559 58.4437 74.9459 57.8952 76.4811 57.181C77.7405 56.5959 78.9096 55.8334 79.9527 54.9168H79.9491C74.8207 55.9771 71.9234 55.6936 70.1452 54.961C69.7037 54.7773 69.2918 54.5292 68.923 54.2247V54.2284ZM39.3569 54.5745H39.2796C39.0845 54.5929 38.801 54.6591 38.2525 55.2666C36.9713 56.7024 36.5222 57.6043 35.4656 58.4474C34.409 59.2868 33.0358 59.7359 30.2931 60.2992C29.7073 60.4037 29.137 60.5818 28.5959 60.8293C28.7027 60.9177 28.6916 60.9398 28.8536 61.0244C29.2549 61.2453 29.7703 61.4405 30.1863 61.5472C31.3644 61.8417 33.3008 62.1841 35.322 61.8417C37.3431 61.4957 39.4453 60.5274 41.2381 58.013C41.5474 57.5786 41.5805 56.938 41.3265 56.2495C41.0688 55.5611 40.5055 54.9684 40.1079 54.8027C39.8713 54.6885 39.6176 54.6139 39.3569 54.5818V54.5745Z" fill="black"/>
</svg>
