<svg width="86" height="82" viewBox="0 0 86 82" fill="none" xmlns="http://www.w3.org/2000/svg">
<path d="M59.4103 56.7324C62.5143 56.4646 64.9217 53.7321 64.7646 50.4673C64.6003 47.2026 61.9249 44.5809 58.6638 44.5809H58.4459C56.8275 44.6386 55.2983 45.3366 54.1945 46.5215C53.0906 47.7064 52.5025 49.2811 52.5594 50.8995C52.6666 52.6105 53.3666 54.0035 54.3239 55.0179C50.5806 62.2975 44.962 67.6482 36.4501 72.1452C30.7244 75.1384 24.6772 76.2672 18.7907 75.4635C13.8686 74.7705 10.0181 72.5703 7.66065 69.0412C4.13161 63.6869 3.81014 57.9112 6.74981 52.1318C8.89652 47.9563 12.1041 44.9059 14.2472 43.4057C13.6004 41.6129 13.0988 39.771 12.747 37.8978C-3.09791 49.2458 -1.48698 64.7621 3.32793 72.0952C6.91412 77.4459 14.2472 80.8678 22.2733 80.8678C24.4128 80.8678 26.6631 80.7106 28.8563 80.1748C42.7724 77.4995 53.3131 69.1519 59.3603 56.8432L59.4103 56.7324ZM78.5128 43.3521C70.2224 33.6116 58.0173 28.2609 44.1011 28.2609H42.2795C41.3758 26.282 39.2898 25.0497 36.9323 25.0497H36.7716C33.4033 25.0497 30.778 27.943 30.8887 31.3113C30.9959 34.5188 33.7248 37.1977 36.9895 37.1977H37.2538C38.4112 37.1523 39.531 36.7749 40.4798 36.1106C41.4285 35.4462 42.1661 34.5229 42.6045 33.4508H44.5869C52.8344 33.4508 60.6426 35.8583 67.7614 40.566C73.2157 44.1522 77.1269 48.86 79.3201 54.4822C81.2417 59.0828 81.1382 63.5798 79.1593 67.3303C76.1089 73.2132 70.9689 76.3207 64.1752 76.3207C59.8925 76.3207 55.7205 74.9813 53.5774 74.0204C52.2951 75.0849 50.1519 76.853 48.5982 77.9245C53.3059 80.0605 58.0708 81.2928 62.6714 81.2928C73.1085 81.2928 80.8631 75.4099 83.8099 69.7342C87.0175 63.3119 86.7532 52.5033 78.5628 43.245L78.5128 43.3521ZM23.1805 58.6541C23.25 60.23 23.9216 61.7191 25.0567 62.8144C26.1919 63.9096 27.704 64.5275 29.2813 64.5406H29.4957C30.3 64.5225 31.0925 64.3435 31.8266 64.0144C32.5607 63.6852 33.2215 63.2124 33.7701 62.6239C34.3186 62.0354 34.7439 61.343 35.0207 60.5877C35.2976 59.8323 35.4205 59.0291 35.3821 58.2255C35.3821 55.0144 32.5996 52.3426 29.3349 52.3426H29.117C28.9027 52.3426 28.5848 52.3426 28.3134 52.4462C23.8735 44.9523 21.9982 36.9227 22.6983 28.2609C23.1234 21.7314 25.2665 16.0557 29.117 11.3479C32.3282 7.33311 38.3754 5.3507 42.4974 5.24712C54.056 5.02923 58.8745 19.4311 59.246 25.1569L64.5967 26.7607C63.3644 9.20835 52.4522 0 42.0152 0C32.221 0 23.1805 7.11879 19.5372 17.5559C14.5616 31.472 17.8263 44.8487 23.9271 55.5537C23.3949 56.2502 23.0734 57.479 23.1805 58.6541Z" fill="black"/>
</svg>
