<svg width="86" height="86" viewBox="0 0 86 86" fill="none" xmlns="http://www.w3.org/2000/svg">
<path d="M71.4324 0H14.2865C10.5004 0.00942997 6.87203 1.51764 4.19483 4.19483C1.51764 6.87203 0.00942997 10.5004 0 14.2865V71.4324C0 79.29 6.42892 85.7189 14.2865 85.7189H71.4324C79.29 85.7189 85.7189 79.29 85.7189 71.4324V14.2865C85.7189 6.42892 79.29 0 71.4324 0ZM63.6213 60.1997C62.907 61.9212 61.7748 63.4392 60.3247 64.6071C58.8246 65.8214 56.9245 66.8215 54.5851 67.5358C52.2493 68.2608 49.4705 68.6251 46.2525 68.6251H23.2798V18.6224H47.574C52.0671 18.6224 55.6673 19.6332 58.3603 21.694C61.0747 23.7656 62.4248 26.8515 62.4248 31.016C62.4248 33.534 61.8105 35.6948 60.5747 37.4806C59.3461 39.2557 57.5745 40.6451 55.2887 41.6094V41.7737C58.3389 42.4166 60.6997 43.8631 62.2534 46.1132C63.807 48.3633 64.6035 51.2063 64.6035 54.6387C64.6035 56.5602 64.232 58.3889 63.532 60.0961L63.6213 60.1925V60.1997ZM53.7065 47.8776C52.2421 46.5382 50.1849 45.8846 47.5276 45.8846H32.091V61.4855H47.5704C50.2134 61.4855 52.285 60.7997 53.7493 59.4139C55.2137 58.0389 55.9637 56.078 55.9637 53.5565C55.9387 51.0921 55.2137 49.1848 53.7493 47.8776H53.6886H53.7065ZM51.5635 37.7949C52.9779 36.5948 53.6708 34.8769 53.6708 32.6375C53.6708 30.1231 53.0457 28.3372 51.7778 27.3158C50.5206 26.2979 48.7062 25.7693 46.3204 25.7693H32.0339V39.5664H46.3204C48.4026 39.5664 50.1777 38.9593 51.5492 37.7949H51.5635Z" fill="black"/>
</svg>
