<svg width="86" height="97" viewBox="0 0 86 97" fill="none" xmlns="http://www.w3.org/2000/svg">
<path d="M51.0917 11.0391L70.8947 22.4755C71.8151 21.5061 72.9488 20.7646 74.2058 20.3097C75.4628 19.8548 76.8084 19.6991 78.1361 19.8548C79.4637 20.0106 80.7368 20.4736 81.8543 21.2071C82.9719 21.9406 83.9031 22.9245 84.5742 24.0806C85.2372 25.2388 85.6219 26.5354 85.698 27.8678C85.774 29.2003 85.5394 30.5321 85.0125 31.7583C84.4855 32.9845 83.6808 34.0715 82.6619 34.9334C81.6429 35.7953 80.4375 36.4085 79.1409 36.7248V59.5935C80.4414 59.9024 81.6515 60.5118 82.674 61.3727C83.6965 62.2337 84.5031 63.3223 85.029 64.5512C85.5549 65.7801 85.7855 67.1152 85.7023 68.4493C85.6192 69.7835 85.2245 71.0795 84.5501 72.2336C83.8689 73.4097 82.9185 74.4075 81.7771 75.1453C80.6357 75.8831 79.3356 76.3398 77.9836 76.478C76.6315 76.6163 75.2659 76.432 73.9988 75.9405C72.7317 75.4489 71.5992 74.664 70.6941 73.6501L51.0115 85.0143C51.4031 86.1939 51.534 87.4446 51.395 88.6798C51.2561 89.915 50.8507 91.1053 50.2068 92.1685C49.5628 93.2317 48.6958 94.1424 47.6655 94.8378C46.6352 95.5331 45.4662 95.9965 44.2394 96.196C43.0125 96.3954 41.7569 96.3261 40.5594 95.9929C39.3619 95.6596 38.2511 95.0704 37.3036 94.2659C36.356 93.4614 35.5945 92.4608 35.0714 91.3332C34.5484 90.2056 34.2765 88.9779 34.2743 87.7349C34.2743 86.9123 34.3906 86.0897 34.6274 85.2911L14.8204 73.8668C13.8984 74.8302 12.7647 75.5656 11.5091 76.0148C10.2535 76.4639 8.91055 76.6145 7.58667 76.4545C6.26279 76.2946 4.99435 75.8285 3.88186 75.0933C2.76937 74.358 1.84341 73.3737 1.17733 72.2185C0.511258 71.0633 0.123381 69.7688 0.0444369 68.4376C-0.0345072 67.1064 0.197651 65.7752 0.722515 64.5493C1.24738 63.3234 2.05053 62.2366 3.06832 61.375C4.0861 60.5134 5.29057 59.9007 6.58626 59.5854L6.59028 36.7167C5.29085 36.4055 4.08193 35.7955 3.05959 34.9352C2.03724 34.0749 1.22966 32.9879 0.701014 31.7608C0.172368 30.5337 -0.062764 29.2001 0.0143037 27.8662C0.0913714 26.5322 0.478514 25.2346 1.14497 24.0766C1.81393 22.9198 2.74327 21.9349 3.85923 21.1999C4.97519 20.465 6.24707 20.0002 7.57397 19.8425C8.90087 19.6847 10.2463 19.8384 11.5034 20.2913C12.7606 20.7441 13.8949 21.4837 14.8164 22.4514L34.6314 11.015C34.2523 9.7348 34.1773 8.38376 34.4123 7.06942C34.6473 5.75509 35.1858 4.51374 35.9849 3.44415C36.7841 2.37456 37.8219 1.50626 39.0157 0.908349C40.2095 0.310434 41.5264 -0.000594224 42.8616 1.58446e-05C44.1998 -0.00255639 45.52 0.308091 46.7166 0.907106C47.9132 1.50612 48.9531 2.37688 49.7529 3.44972C50.5528 4.52256 51.0905 5.7677 51.3229 7.08554C51.5554 8.40338 51.4762 9.75734 51.0917 11.0391ZM49.0252 14.5583C48.9517 14.6398 48.874 14.7175 48.7924 14.791L74.7188 59.6938C74.8232 59.6577 74.9436 59.6296 75.0479 59.6015V36.7007C73.9552 36.4298 72.9267 35.9462 72.021 35.2775C71.1153 34.6089 70.3503 33.7683 69.7697 32.8038C69.1891 31.8394 68.8042 30.7699 68.6372 29.6567C68.4701 28.5434 68.5241 27.4081 68.796 26.3157L68.8723 26.0268L49.0252 14.5583ZM36.9267 14.795L36.6859 14.5543L16.8389 25.9987C17.1512 27.0805 17.2473 28.2133 17.1216 29.3323C16.996 30.4513 16.6511 31.5346 16.1067 32.5202C15.5622 33.5059 14.8289 34.3746 13.9486 35.0768C13.0683 35.7789 12.0583 36.3007 10.9762 36.6124L10.6712 36.6967V59.6015L11.0083 59.6938L36.9347 14.791L36.9267 14.795ZM45.2572 16.8295C43.6922 17.2789 42.0349 17.2789 40.474 16.8295L14.5516 61.7282C15.7313 62.8638 16.566 64.3165 16.9592 65.9055H68.7679C69.1572 64.3084 69.9998 62.8518 71.1876 61.7162L45.2572 16.8295ZM49.2138 81.9445L68.9284 70.5563C68.8696 70.3686 68.8188 70.1785 68.776 69.9865H16.9472L16.8629 70.3195L36.6819 81.7639C37.4813 80.932 38.4411 80.2709 39.5032 79.8205C40.5654 79.3701 41.7079 79.1398 42.8616 79.1436C45.3776 79.1436 47.6368 80.223 49.2138 81.9445Z" fill="black"/>
</svg>
