<svg width="103" height="62" viewBox="0 0 103 62" fill="none" xmlns="http://www.w3.org/2000/svg">
<path d="M51.3353 0C37.6459 0 29.09 6.8447 25.6676 20.5341C30.8012 13.6894 36.7903 11.1226 43.635 12.8338C47.5407 13.8092 50.3299 16.6412 53.4229 19.7812C58.458 24.889 64.2803 30.8012 77.0029 30.8012C90.6923 30.8012 99.2482 23.9565 102.671 10.2671C97.537 17.1118 91.5479 19.6785 84.7032 17.9673C80.7974 16.992 78.0082 14.16 74.9153 11.02C69.8844 5.91211 64.0621 0 51.3353 0ZM25.6676 30.8012C11.9782 30.8012 3.42235 37.6459 0 51.3353C5.13353 44.4906 11.1226 41.9238 17.9673 43.635C21.8731 44.6103 24.6623 47.4423 27.7553 50.5824C32.7904 55.6902 38.6127 61.6023 51.3353 61.6023C65.0247 61.6023 73.5806 54.7576 77.0029 41.0682C71.8694 47.9129 65.8803 50.4797 59.0356 48.7685C55.1298 47.7931 52.3406 44.9611 49.2476 41.8211C44.2168 36.7133 38.3945 30.8012 25.6676 30.8012Z" fill="black"/>
</svg>
