<svg width="76" height="76" viewBox="0 0 76 76" fill="none" xmlns="http://www.w3.org/2000/svg">
<path d="M65.8265 0H9.40379C6.90975 0 4.51786 0.990754 2.75431 2.75431C0.990754 4.51786 0 6.90975 0 9.40379L0 65.8265C0 68.3206 0.990754 70.7125 2.75431 72.476C4.51786 74.2396 6.90975 75.2303 9.40379 75.2303H65.8265C71.0174 75.2303 75.2303 71.0174 75.2303 65.8265V9.40379C75.2303 6.90975 74.2396 4.51786 72.476 2.75431C70.7125 0.990754 68.3206 0 65.8265 0V0ZM32.7252 56.987C32.7252 58.1841 32.2496 59.3322 31.4031 60.1787C30.5566 61.0252 29.4085 61.5008 28.2114 61.5008H14.2938C11.8018 61.5008 9.77994 59.4758 9.77994 56.987V14.2938C9.77994 11.8018 11.8018 9.77994 14.2938 9.77994H28.2114C30.7034 9.77994 32.7252 11.8018 32.7252 14.2938V56.987ZM65.4504 38.1794C65.4504 40.6683 63.4286 42.6932 60.9366 42.6932H47.019C44.5269 42.6932 42.5051 40.6683 42.5051 38.1794V14.2938C42.5051 11.8018 44.5301 9.77994 47.019 9.77994H60.9366C63.4286 9.77994 65.4504 11.8018 65.4504 14.2938V38.1794Z" fill="black"/>
</svg>
