<svg width="86" height="119" viewBox="0 0 86 119" fill="none" xmlns="http://www.w3.org/2000/svg">
<path d="M2.83756 77.3427L14.5086 2.27324C14.593 1.71677 14.8509 1.20113 15.2455 0.799735C15.64 0.398338 16.1511 0.131636 16.7061 0.0375983C17.261 -0.0564395 17.8315 0.0269791 18.3362 0.275979C18.841 0.524979 19.2544 0.926868 19.5175 1.42444L32.0669 24.9688L2.83756 77.3427ZM85.7189 95.5573L74.6056 26.4739C74.5239 25.9897 74.3107 25.5372 73.9893 25.1659C73.6679 24.7947 73.2506 24.5188 72.7831 24.3686C72.3156 24.2184 71.8157 24.1995 71.3382 24.314C70.8607 24.4286 70.4238 24.6721 70.0753 25.0181L0 95.5573L38.7734 117.409C39.9691 118.081 41.3176 118.434 42.6892 118.434C44.0608 118.434 45.4093 118.081 46.605 117.409L85.7189 95.5573ZM54.2097 35.2728L45.2282 18.0895C45.0016 17.6574 44.6611 17.2955 44.2436 17.043C43.826 16.7905 43.3474 16.6571 42.8595 16.6571C42.3715 16.6571 41.8929 16.7905 41.4754 17.043C41.0578 17.2955 40.7173 17.6574 40.4907 18.0895L1.061 88.7472L54.2097 35.2728Z" fill="black"/>
</svg>
