<svg width="262" height="262" viewBox="0 0 262 262" fill="none" xmlns="http://www.w3.org/2000/svg">
<path d="M182.745 4.02508C185.323 1.44782 188.82 0 192.465 0C196.11 0 199.606 1.44782 202.184 4.02508L257.174 59.015C259.752 61.5931 261.199 65.0892 261.199 68.7345C261.199 72.3799 259.752 75.876 257.174 78.454L78.4569 257.171C75.8794 259.75 72.3832 261.199 68.7375 261.199H13.7475C10.1014 261.199 6.6047 259.751 4.02655 257.173C1.44839 254.595 0 251.098 0 247.452V192.462C0.000778622 188.816 1.44968 185.32 4.02801 182.742L141.503 45.2676L182.745 4.02508ZM151.222 74.426L27.495 198.153V233.704H63.046L186.773 109.977L151.222 74.426ZM206.212 90.5381L228.016 68.7345L192.465 33.1835L170.661 54.987L206.212 90.5381Z" fill="#0D0D0D"/>
</svg>
