<svg width="103" height="116" viewBox="0 0 103 116" fill="none" xmlns="http://www.w3.org/2000/svg">
<path d="M51.328 115.779C49.7795 115.779 48.2358 115.374 46.8802 114.587L32.7168 106.208C30.6039 105.026 31.6362 104.606 32.3309 104.36C35.153 103.381 35.7222 103.154 38.7372 101.446C39.0508 101.268 39.4657 101.336 39.7889 101.528L50.672 107.988C50.874 108.095 51.0993 108.151 51.328 108.151C51.5568 108.151 51.7821 108.095 51.9841 107.988L94.4117 83.5009C94.6095 83.3817 94.773 83.2133 94.8863 83.0121C94.9996 82.8109 95.0588 82.5837 95.0582 82.3528V33.3886C95.0578 33.1536 94.9968 32.9226 94.881 32.7181C94.7652 32.5136 94.5986 32.3424 94.3973 32.2212L51.9889 7.75351C51.7891 7.64198 51.5641 7.58343 51.3353 7.58343C51.1064 7.58343 50.8814 7.64198 50.6816 7.75351L8.28292 32.226C8.08081 32.346 7.91297 32.5159 7.79553 32.7196C7.6781 32.9232 7.61502 33.1536 7.61237 33.3886V82.3528C7.61331 82.5843 7.67593 82.8114 7.79379 83.0107C7.91165 83.2099 8.08048 83.3742 8.28292 83.4865L19.9041 90.2016C26.2091 93.3565 30.0732 89.642 30.0732 85.9082V37.5662C30.0732 36.8812 30.6232 36.3457 31.3082 36.3457H36.687C37.3575 36.3457 37.9171 36.886 37.9171 37.5662V85.9082C37.9171 94.3261 33.3343 99.1502 25.3553 99.1502C22.9046 99.1502 20.9702 99.1502 15.5817 96.4921L4.44779 90.0906C3.09444 89.3025 1.97149 88.1732 1.19102 86.8154C0.410557 85.4577 -0.00011466 83.9189 2.40133e-08 82.3528V33.3886C2.40133e-08 30.2095 1.70289 27.2379 4.44779 25.6556L46.8754 1.13972C48.2421 0.391937 49.775 0 51.3329 0C52.8907 0 54.4236 0.391937 55.7903 1.13972L98.2131 25.6556C100.963 27.2427 102.671 30.2095 102.671 33.3886V82.3528C102.668 83.9195 102.255 85.4581 101.473 86.8156C100.691 88.1731 99.5669 89.3022 98.2131 90.0906L55.7903 114.587C54.4396 115.374 52.9007 115.779 51.328 115.779ZM85.5837 67.5044C85.5837 58.3386 79.3896 55.8977 66.3502 54.1755C53.1756 52.434 51.8346 51.5319 51.8346 48.4493C51.8346 45.9022 52.9682 42.5012 62.7273 42.5012C71.4444 42.5012 74.6572 44.3778 75.979 50.2535C76.0392 50.525 76.19 50.7679 76.4065 50.9424C76.623 51.1168 76.8925 51.2124 77.1705 51.2135H82.6748C82.8429 51.2118 83.009 51.1764 83.1631 51.1092C83.3173 51.0421 83.4563 50.9447 83.5721 50.8227C83.6886 50.6962 83.7775 50.5468 83.8331 50.384C83.8888 50.2212 83.91 50.0486 83.8953 49.8772C83.0414 39.7563 76.3167 35.0384 62.7273 35.0384C50.6285 35.0384 43.4117 40.1423 43.4117 48.705C43.4117 57.9913 50.5899 60.5577 62.2015 61.7058C76.0948 63.0662 77.1705 65.0972 77.1705 67.8276C77.1705 72.5696 73.3643 74.5909 64.4254 74.5909C53.1998 74.5909 50.7298 71.7737 49.9001 66.1874C49.854 65.8973 49.7056 65.6332 49.4818 65.443C49.2579 65.2527 48.9734 65.1489 48.6796 65.1502H43.1947C43.0338 65.1489 42.8743 65.1796 42.7254 65.2404C42.5764 65.3012 42.4411 65.391 42.3271 65.5045C42.2131 65.6181 42.1228 65.7531 42.0614 65.9018C42 66.0505 41.9687 66.2098 41.9693 66.3707C41.9693 73.52 45.8575 82.0393 64.4254 82.0393C77.8748 82.0441 85.5837 76.7521 85.5837 67.5044Z" fill="black"/>
</svg>
