<svg width="86" height="107" viewBox="0 0 86 107" fill="none" xmlns="http://www.w3.org/2000/svg">
<path d="M63.8243 1.07991L63.2903 13.1397C63.2838 13.2923 63.3211 13.4435 63.3976 13.5756C63.4742 13.7077 63.587 13.8151 63.7226 13.8852C63.8582 13.9554 64.011 13.9853 64.1631 13.9715C64.3152 13.9577 64.4601 13.9007 64.5808 13.8073L69.298 10.2472L73.3031 13.3622C73.4207 13.4411 73.5571 13.4874 73.6983 13.4964C73.8396 13.5053 73.9808 13.4767 74.1074 13.4134C74.2341 13.3501 74.3417 13.2543 74.4192 13.1359C74.4968 13.0175 74.5416 12.8806 74.5491 12.7392L74.1041 0.456894L80.0228 0.0118815C80.7534 -0.0369383 81.4863 0.0650311 82.1758 0.311453C82.8654 0.557874 83.4969 0.943482 84.0311 1.44431C84.5653 1.94514 84.9908 2.55049 85.2812 3.22273C85.5715 3.89498 85.7205 4.61976 85.7189 5.35203V101.475C85.7198 102.199 85.5734 102.916 85.2885 103.582C85.0035 104.248 84.5861 104.849 84.0616 105.348C83.5371 105.848 82.9165 106.235 82.2374 106.488C81.5584 106.74 80.8352 106.851 80.1118 106.815L8.46483 103.611C7.11769 103.555 5.84139 102.992 4.89215 102.035C3.94291 101.077 3.39099 99.7961 3.34719 98.4485L0.00959969 10.3362C-0.0325215 9.63462 0.0642516 8.93166 0.294371 8.26759C0.52449 7.60353 0.883429 6.99142 1.3506 6.46636C1.81778 5.94131 2.384 5.51363 3.01681 5.20786C3.64961 4.90209 4.33655 4.72424 5.03824 4.68451L63.7798 0.990908L63.8243 1.07991ZM50.1625 41.398C50.1625 43.4896 64.2248 42.466 66.1384 41.042C66.1384 26.8016 58.4842 19.2809 44.5108 19.2809C30.4929 19.2809 22.7052 26.9351 22.7052 38.3719C22.7052 58.1749 49.4059 58.531 49.4059 69.3447C49.4059 72.4598 47.9819 74.2399 44.7333 74.2399C40.4612 74.2399 38.7256 72.0593 38.9482 64.6276C38.9482 63.0256 22.7052 62.4916 22.1712 64.6276C20.9697 82.5616 32.095 87.7682 44.8668 87.7682C57.2826 87.7682 66.9839 81.1376 66.9839 69.1667C66.9839 47.9397 39.8382 48.5182 39.8382 38.0159C39.8382 33.6993 43.0423 33.1208 44.8668 33.1208C46.8694 33.1208 50.4295 33.4323 50.1625 41.4425V41.398Z" fill="black"/>
</svg>
