<svg width="76" height="79" viewBox="0 0 76 79" fill="none" xmlns="http://www.w3.org/2000/svg">
<path d="M12.973 13.7499C15.4107 15.7302 16.3257 15.5799 20.9071 15.2727L64.0905 12.6814C65.0055 12.6814 64.2441 11.7664 63.9402 11.6161L56.7642 6.43014C55.3918 5.36485 53.5586 4.14271 50.049 4.44661L8.23802 7.49869C6.71524 7.64901 6.40807 8.41367 7.01588 9.02147L12.973 13.7499ZM15.5643 23.8146V69.2495C15.5643 71.6905 16.7832 72.6055 19.5314 72.4519L66.989 69.707C69.7372 69.5567 70.0444 67.8771 70.0444 65.8935V20.7625C70.0444 18.7823 69.283 17.7137 67.6001 17.864L18.0053 20.7625C16.1754 20.9161 15.5643 21.8311 15.5643 23.8113V23.8146ZM62.4142 26.2491C62.7181 27.6215 62.4142 28.994 61.0417 29.1509L58.7543 29.6083V63.1486C56.7675 64.2172 54.9375 64.8282 53.4115 64.8282C50.9672 64.8282 50.3562 64.0636 48.5262 61.7794L33.5697 38.2973V61.0148L38.3014 62.0866C38.3014 62.0866 38.3014 64.8315 34.4846 64.8315L23.9559 65.4393C23.652 64.8315 23.9559 63.3055 25.0245 63.0016L27.7694 62.2402V32.1997L23.9625 31.8925C23.6553 30.5201 24.42 28.5398 26.5538 28.3862L37.8472 27.6248L53.4148 51.4108V30.3665L49.4444 29.9122C49.1405 28.2326 50.3594 27.0137 51.8855 26.8634L62.4142 26.2491ZM4.72845 3.38132L48.2223 0.178916C53.5618 -0.27857 54.9375 0.0253315 58.2935 2.46635L72.1782 12.2239C74.4657 13.9002 75.2303 14.3577 75.2303 16.1877V69.707C75.2303 73.0597 74.0115 75.0465 69.7405 75.3472L19.2275 78.3992C16.0251 78.5528 14.4958 78.0953 12.8161 75.9582L2.59133 62.6911C0.761388 60.2501 0 58.4234 0 56.2863V8.7143C0 5.97265 1.22214 3.68195 4.72845 3.38132Z" fill="black"/>
</svg>
