<svg width="86" height="95" viewBox="0 0 86 95" fill="none" xmlns="http://www.w3.org/2000/svg">
<path d="M83.1263 46.4312C83.1216 43.7272 82.2218 41.1008 80.5676 38.9619C78.9133 36.8229 76.5975 35.2918 73.9815 34.6073L85.7189 0H27.5543L39.3231 34.7173C36.7824 35.4579 34.5502 37.002 32.961 39.1181C31.3718 41.2342 30.5112 43.8083 30.5083 46.4547C30.5129 48.4059 30.9834 50.3277 31.8805 52.0604C32.7775 53.7931 34.0754 55.2866 35.666 56.4166C34.4128 58.1833 32.9864 59.8203 31.4078 61.3033C28.5041 64.0689 25.106 66.2636 21.3909 67.773C18.1148 65.5615 16.6967 61.6608 17.9773 58.1647C20.7642 57.299 23.1492 55.4644 24.7007 52.9927C26.2521 50.521 26.8675 47.5756 26.4356 44.6895C26.0036 41.8034 24.5528 39.1673 22.3457 37.2582C20.1385 35.349 17.3209 34.293 14.4027 34.2813C11.1608 34.2854 8.05284 35.5751 5.76046 37.8675C3.46808 40.1599 2.17839 43.2678 2.17424 46.5097C2.17424 49.8408 3.53732 52.897 5.72139 55.081C5.53284 55.4621 5.34036 55.847 5.14787 56.2556C3.32127 60.0227 1.24718 64.2809 0.45369 69.0575C-1.12937 78.6109 1.46323 86.2787 7.71691 90.6194C11.1016 93.0065 15.1437 94.2843 19.2854 94.2765C26.4622 94.2765 33.749 90.6744 40.7922 87.1783C45.8164 84.6957 51.0016 82.1031 56.1043 80.846C57.9899 80.3825 59.9539 80.1115 62.028 79.809C66.2312 79.208 70.5718 78.5834 74.4725 76.3129C76.7001 75.0364 78.6216 73.2881 80.1022 71.1907C81.5829 69.0932 82.5869 66.6973 83.0438 64.1709C83.7273 60.2663 83.0438 56.3381 81.2997 52.897C82.4703 51.0114 83.1263 48.8038 83.1263 46.4272V46.4312ZM77.8036 46.4312C77.8036 50.2219 74.72 53.3055 70.9293 53.3055C69.5018 53.3015 68.1108 52.854 66.9488 52.0249C65.7868 51.1957 64.9112 50.0259 64.4431 48.6774C63.975 47.3288 63.9376 45.8681 64.3361 44.4973C64.7346 43.1266 65.5492 41.9135 66.6672 41.026L66.6947 40.9985C66.9147 40.8335 67.1582 40.6685 67.4018 40.5075C67.4018 40.5075 67.4332 40.5075 67.4332 40.48C67.5432 40.425 67.6493 40.3425 67.7593 40.2836C67.7868 40.2836 67.8143 40.26 67.8418 40.26C67.9517 40.205 68.0892 40.15 68.2228 40.095C68.3603 40.04 68.4978 39.989 68.6077 39.934C68.6352 39.934 68.6588 39.9065 68.6863 39.9065C68.7963 39.879 68.9063 39.824 69.0163 39.7965C69.0438 39.7965 69.0948 39.769 69.1263 39.769C69.2598 39.7415 69.3698 39.714 69.5073 39.6904H69.5348L69.9433 39.604C69.9708 39.604 70.0219 39.604 70.0533 39.5765C70.1633 39.5765 70.2694 39.549 70.3794 39.549H70.5168C70.6543 39.549 70.7918 39.5215 70.9529 39.5215H71.3064C71.4164 39.5215 71.5028 39.5215 71.6089 39.549H71.6639C71.8799 39.5765 72.0999 39.604 72.3199 39.659C73.8696 39.991 75.2588 40.8437 76.2565 42.0751C77.2542 43.3065 77.8002 44.8424 77.8036 46.4272V46.4312ZM35.171 5.46018H78.1061L68.2503 34.5288C67.8418 34.6073 67.4332 34.7448 67.0247 34.8823L56.6543 13.729L46.2524 34.7448C45.8439 34.6113 45.4039 34.5288 44.9679 34.4463L35.171 5.45625V5.46018ZM54.6862 44.0546C54.1841 41.535 52.8937 39.2404 51.0016 37.5024L56.6503 26.095L62.3541 37.7499C60.6649 39.439 59.4354 41.5995 58.9444 44.0546H54.6823H54.6862ZM41.0122 39.7415C41.1458 39.714 41.2558 39.6865 41.3933 39.6629H41.4718C41.5857 39.6315 41.6918 39.6315 41.8018 39.604H41.9118C42.0218 39.604 42.1043 39.5765 42.2103 39.5765H43.2749C43.3848 39.5765 43.4673 39.604 43.5498 39.604C43.6048 39.604 43.6284 39.604 43.6873 39.6315C43.7934 39.659 43.8759 39.659 43.9859 39.6865C44.0134 39.6865 44.0409 39.6865 44.0959 39.714L44.4769 39.7925H44.5044C44.6144 39.824 44.7244 39.8515 44.8304 39.9065C44.8579 39.9065 44.8854 39.934 44.9404 39.934C45.0229 39.9615 45.1329 39.9889 45.2154 40.04C45.2429 40.04 45.2704 40.0675 45.2939 40.0675C45.4039 40.1225 45.5139 40.15 45.6239 40.205H45.6514C45.7775 40.2526 45.8965 40.3174 46.005 40.3975H46.0324C46.1424 40.4525 46.2524 40.531 46.3624 40.586C46.3899 40.586 46.3899 40.6135 46.4135 40.6135C46.5235 40.6685 46.6099 40.751 46.716 40.806L46.7435 40.8335C47.0695 41.0771 47.372 41.352 47.6705 41.6231L47.698 41.6506C48.9144 42.9319 49.5898 44.633 49.5835 46.3998C49.5232 48.1837 48.7721 49.8745 47.4888 51.1152C46.2055 52.3559 44.4903 53.0494 42.7053 53.0494C40.9203 53.0494 39.2051 52.3559 37.9217 51.1152C36.6384 49.8745 35.8873 48.1837 35.827 46.3998C35.8227 44.8701 36.3311 43.383 37.271 42.1761C38.2109 40.9692 39.5281 40.112 41.0122 39.7415ZM14.1513 39.549C17.9459 39.549 21.0295 42.6366 21.0295 46.4272C21.0295 50.218 17.9459 53.3055 14.1552 53.3055C10.3645 53.3055 7.27302 50.2219 7.27302 46.4312C7.27302 42.6405 10.3606 39.549 14.1513 39.549ZM77.6426 63.2163C77.3321 64.9626 76.6403 66.6189 75.6164 68.0672C74.5924 69.5155 73.2617 70.7201 71.7189 71.5951C68.7413 73.3157 65.0842 73.8617 61.2345 74.4077C59.07 74.685 56.9201 75.0665 54.7923 75.5508C49.1161 76.9453 43.6598 79.6754 38.3646 82.2955C31.5924 85.6502 25.2052 88.8163 19.2854 88.8163C16.2498 88.8352 13.2867 87.8888 10.8241 86.1137C4.81791 81.9656 5.11645 74.1878 5.82745 69.9296C6.48346 65.9425 8.31007 62.2068 10.0581 58.6282C10.1681 58.4122 10.2506 58.2197 10.3606 57.9997C10.9577 58.2197 11.5862 58.3847 12.2422 58.4946C11.2051 64.2809 14.1513 70.2556 19.8864 73.2057L20.9235 73.7517L22.0391 73.3432C26.8158 71.6501 31.2389 68.8926 35.1435 65.2079C37.2997 63.1974 39.2055 60.9341 40.8197 58.4671C41.4483 58.5732 42.0768 58.6007 42.7053 58.6007C45.4074 58.5944 48.0316 57.6945 50.1689 56.0411C52.3061 54.3877 53.8364 52.0737 54.5213 49.4598H59.1055C59.7858 52.0777 61.316 54.3957 63.4559 56.05C65.5958 57.7044 68.2244 58.6015 70.9293 58.6007C73.1919 58.6007 75.2896 57.9722 77.0966 56.9116C77.8036 58.9542 78.0236 61.0872 77.6426 63.2163Z" fill="black"/>
</svg>
