<svg width="86" height="87" viewBox="0 0 86 87" fill="none" xmlns="http://www.w3.org/2000/svg">
<path d="M62.4965 51.6123C61.4307 51.0775 56.1876 48.5009 55.2115 48.142C54.2318 47.7867 53.5213 47.6109 52.8071 48.6803C52.1002 49.7461 50.0546 52.147 49.4338 52.8575C48.8129 53.5717 48.1885 53.6578 47.1227 53.1267C46.0569 52.5884 42.6189 51.4651 38.5458 47.8334C35.377 45.0055 33.2346 41.5138 32.6137 40.4443C31.9929 39.3785 32.5491 38.8007 33.0803 38.2696C33.5611 37.7923 34.1497 37.0243 34.6808 36.4035C35.2155 35.7791 35.3914 35.3341 35.7502 34.6199C36.1055 33.9094 35.9297 33.2886 35.6605 32.7538C35.3914 32.2191 33.2597 26.9689 32.3733 24.8337C31.5048 22.7558 30.6256 23.0393 29.9725 23.0035C29.291 22.9763 28.609 22.9643 27.9269 22.9676C27.2164 22.9676 26.0608 23.2331 25.0847 24.3026C24.1086 25.3684 21.3525 27.9486 21.3525 33.1988C21.3525 38.4455 25.1744 43.5162 25.7056 44.2304C26.2403 44.9409 33.2274 55.7141 43.9252 60.3327C46.4696 61.4308 48.4541 62.0875 50.0044 62.5756C52.5595 63.3902 54.885 63.2754 56.7188 62.9991C58.7679 62.694 63.0276 60.4188 63.9176 57.9283C64.8076 55.4378 64.8076 53.3025 64.5385 52.8575C64.2729 52.4125 63.5623 52.147 62.4929 51.6123M43.0388 78.1791H43.0244C36.6717 78.1796 30.4357 76.4716 24.9699 73.2339L23.6744 72.466L10.2492 75.99L13.8307 62.8986L12.9874 61.5564C9.43616 55.9016 7.5575 49.3575 7.56848 42.6801C7.57207 23.1219 23.4878 7.20976 43.0531 7.20976C52.5272 7.20976 61.4343 10.9061 68.1307 17.6097C71.4347 20.8991 74.0535 24.8112 75.8356 29.1194C77.6176 33.4276 78.5276 38.0465 78.5127 42.7088C78.5019 62.267 62.5898 78.1791 43.0388 78.1791ZM73.2302 12.5174C69.2762 8.53729 64.5716 5.38147 59.389 3.23281C54.2065 1.08415 48.6491 -0.0146283 43.0388 0.000147054C19.5151 0.000147054 0.369632 19.1456 0.358866 42.6765C0.358866 50.1983 2.32186 57.5407 6.05766 64.0111L0 86.128L22.6265 80.1923C28.8837 83.6013 35.8953 85.3878 43.0209 85.3887H43.0388C66.5589 85.3887 85.708 66.2432 85.7187 42.7088C85.7361 37.1007 84.6413 31.5448 82.4977 26.3626C80.354 21.1803 77.2041 16.4745 73.2302 12.5174Z" fill="black"/>
</svg>
