<svg width="76" height="76" viewBox="0 0 76 76" fill="none" xmlns="http://www.w3.org/2000/svg">
<path d="M36.2704 36.0886H0C0.00122885 38.2394 0.42666 40.3689 1.25194 42.3552C2.07722 44.3414 3.28614 46.1453 4.80949 47.6637C6.33284 49.1821 8.14071 50.3852 10.1296 51.204C12.1185 52.0228 14.2494 52.4413 16.4002 52.4355H23.0769V58.8834C23.0769 63.2178 24.7983 67.3747 27.8626 70.4402C30.9269 73.5056 35.0832 75.2286 39.4175 75.2303V39.2389C39.4175 38.4034 39.0856 37.6021 38.4949 37.0113C37.9041 36.4205 37.1028 36.0886 36.2673 36.0886H36.2704ZM54.2097 18.0459H17.98C17.9809 22.3808 19.7035 26.5379 22.7691 29.6029C25.8346 32.6678 29.992 34.3897 34.327 34.3897H41.0005V40.8406C41.0038 45.1748 42.7273 49.3305 45.7923 52.3949C48.8573 55.4593 53.0133 57.1819 57.3474 57.1844V21.1836C57.3474 20.3514 57.0168 19.5533 56.4284 18.9649C55.84 18.3764 55.0419 18.0459 54.2097 18.0459ZM72.1365 0H35.9068C35.9068 4.33547 37.6291 8.49337 40.6947 11.559C43.7603 14.6247 47.9182 16.3469 52.2537 16.3469H58.9273V22.7948C58.9306 27.1205 60.6483 31.2685 63.7041 34.3302C66.7599 37.3919 70.9046 39.1175 75.2303 39.1292V3.15027C75.2337 2.32347 74.9106 1.52875 74.3313 0.938852C73.7519 0.348953 72.9632 0.0115568 72.1365 0V0Z" fill="black"/>
</svg>
