<svg width="86" height="192" viewBox="0 0 86 192" fill="none" xmlns="http://www.w3.org/2000/svg">
<path d="M84.1349 75.8187C74.074 31.5287 50.3438 16.9752 47.7947 11.4071C44.9908 7.47991 41.9558 0 41.9558 0L41.916 0.390326V0.493881H41.908C41.8938 0.597044 41.8832 0.70066 41.8761 0.804549V0.924036H41.8602L41.8443 1.13115V1.33826H41.8204C41.8124 1.40199 41.8124 1.48164 41.7965 1.5374V1.70469H41.7805C41.7805 1.76045 41.7805 1.82417 41.7646 1.87197V2.03129H41.7487L41.7327 2.28619V2.30212L41.6611 2.70042V2.76414H41.6451L41.6212 2.85973V2.99515H41.5973V3.1704H41.5575V3.31378H41.5177V3.48107H41.4858V3.63242H41.4539V3.76784H41.4062V3.87936H41.3743V4.02274H41.3424V4.13426H41.3026V4.23782H41.2787V4.35731H41.2468L41.2389 4.38917V4.46883H41.215L41.207 4.51662V4.56442H41.1911C41.1827 4.59026 41.1773 4.617 41.1751 4.64408L41.0955 4.81136V4.82729C41.0796 4.84387 41.0662 4.86265 41.0557 4.88305V4.94678H41.0238V5.01051H40.984V5.07423H40.9601V5.15389H40.9123V5.26541H40.8804V5.29728H40.8485V5.361H40.8167V5.44863H40.7848V5.51235H40.737V5.59998H40.7052V5.6637H40.6653V5.72743H40.6414V5.80709H40.6016V5.87082H40.5697V5.91861H40.5379V5.98234H40.4901V6.05403H40.4582V6.10182H40.4184V6.16555H40.3865V6.25318H40.3467V6.28504H40.3228V6.34876H40.275V6.38063H40.2431V6.46029H40.2113V6.49215H40.1794V6.55588H40.1396V6.60367H40.1157L40.0998 6.63553V6.6674H40.0838L40.0679 6.69926V6.70723H40.0599C40.0542 6.72823 40.0433 6.74743 40.0281 6.76299V6.78689H40.0201L39.9245 6.93027V6.93824C39.9086 6.95417 39.8687 6.98603 39.8528 7.01789V7.03383H39.8448L39.8209 7.05772V7.08162H39.805L39.7811 7.10552V7.11348H39.7732L39.7493 7.14535V7.17721H39.7254L39.7094 7.19314V7.20907H39.6935C39.6935 7.22501 39.6776 7.22501 39.6776 7.23297V7.25687H39.6457L39.6298 7.28077V7.32856H39.6059V7.36042H39.574V7.40822H39.5421V7.47195H39.5023V7.40822H39.4625V7.44008H39.4306V7.48788H39.3908V7.55161H39.351V7.58347H39.3191V7.63126H39.2872V7.66313H39.2554V7.72685H39.2076V7.75872H39.1757V7.80651H39.1359V7.83838H39.104V7.8782H39.0642V7.95786H39.0483V7.98973H39.0005V8.02955H38.9686V8.04549H38.9367V8.07735H38.8969V8.15701H38.865V8.18887H38.8252V8.22073H38.7934V8.26853H38.7535V8.30039H38.7137V8.33226H38.6818V8.36412H38.65V8.44378H38.6181V8.48361H38.5703V8.51547H38.5385V8.54733H38.4986V8.59513H38.4668V8.62699H38.4269V8.68275H38.3951V8.71462H38.3473V8.76241H38.3313V8.79427H38.2995V8.82614H38.2596V8.858H38.2278V8.9058H38.188V8.93766H38.1641L38.1561 8.95359V8.96952H38.1402L38.1083 9.00139L38.0764 9.02528V9.07308H38.0446V9.11291H38.0127V9.14477H37.9808V9.17663H37.9569L37.933 9.20053V9.22443H37.9171L37.9012 9.24036V9.26426H37.8853C37.8454 9.31205 37.8295 9.34392 37.7737 9.39171C37.6285 9.49076 37.4925 9.60273 37.3675 9.72628L37.1922 9.8617V9.86966H37.1843C37.0553 9.97466 36.9252 10.0782 36.7939 10.1803V10.1883L36.2045 10.6822V10.6742H36.1885C35.7345 11.0486 35.2565 11.4708 34.7069 11.9408V11.9487H34.6989C33.3527 13.1277 31.7516 14.6412 29.9593 16.4733L29.8398 16.5928L29.8079 16.6247C18.9744 27.8326 1.90361 51.1884 0.103332 88.9305C-0.0559843 92.0531 -0.0241206 95.0881 0.151128 98.0434V98.1151C1.0194 112.987 5.68737 125.685 11.5263 136.001V136.009C13.8523 140.119 16.3616 143.855 18.9027 147.201V147.208C27.681 158.799 36.6426 165.665 38.9288 167.33C42.4417 175.479 42.1151 189.467 42.1151 189.467L47.2451 191.18C47.2451 191.18 46.2016 177.63 47.6673 171.09C48.1213 169.043 49.1967 167.298 50.4474 165.817C52.6665 164.235 54.7867 162.519 56.7961 160.679C56.9395 160.527 57.0192 160.392 57.1466 160.249C69.2626 148.953 91.8936 121.136 84.1349 75.8187Z" fill="black"/>
</svg>
