<svg width="86" height="46" viewBox="0 0 86 46" fill="none" xmlns="http://www.w3.org/2000/svg">
<path d="M25.0371 16.1402H21.6655L19.8261 25.5978H22.8191C24.8049 25.5978 26.2836 25.2228 27.255 24.4763C28.2265 23.7263 28.8801 22.4798 29.2194 20.7297C29.548 19.051 29.398 17.8653 28.7766 17.1759C28.1515 16.4866 26.9086 16.1402 25.0371 16.1402ZM42.8595 0C19.1903 0 0 10.0934 0 22.5441C0 34.9948 19.1903 45.0917 42.8595 45.0917C66.5286 45.0917 85.7189 34.9948 85.7189 22.5441C85.7189 10.0934 66.5286 0 42.8595 0ZM31.216 26.6122C30.2838 27.5051 29.1623 28.1765 27.9408 28.5801C26.7407 28.9659 25.2085 29.1659 23.3513 29.1659H19.1332L17.9653 35.1698H13.0436L17.4367 12.5757H26.9015C29.748 12.5757 31.8232 13.3221 33.1304 14.8187C34.4376 16.3116 34.8305 18.3974 34.309 21.0761C34.1093 22.1361 33.7415 23.1573 33.2197 24.1013C32.7089 25.0121 32.041 25.8514 31.216 26.6122ZM45.5882 29.1659L47.5276 19.1689C47.7526 18.0331 47.6669 17.2545 47.2847 16.8438C46.9025 16.4295 46.0846 16.2223 44.831 16.2223H40.9308L38.4164 29.1694H33.5304L37.9235 6.57178H42.8059L41.638 12.5793H45.9882C48.7276 12.5793 50.6135 13.0578 51.6528 14.0115C52.6921 14.9651 53.0029 16.5116 52.5921 18.651L50.5492 29.1659H45.5882ZM72.7218 21.0761C72.5253 22.137 72.1574 23.1587 71.6324 24.1013C71.1217 25.0121 70.4538 25.8514 69.6288 26.6122C68.6961 27.5023 67.5775 28.1745 66.3536 28.5801C65.1535 28.9659 63.6213 29.1659 61.7605 29.1659H57.546L56.3781 35.1733H51.4564L55.8495 12.5793H65.3107C68.1573 12.5793 70.2324 13.3257 71.5396 14.8222C72.8468 16.3116 73.2432 18.3974 72.7218 21.0761ZM63.4534 16.1402H60.0854L58.2424 25.5978H61.2355C63.2249 25.5978 64.7035 25.2228 65.6714 24.4763C66.6429 23.7263 67.2965 22.4798 67.6394 20.7297C67.968 19.051 67.8144 17.8653 67.1929 17.1759C66.5715 16.4866 65.3214 16.1402 63.4534 16.1402Z" fill="black"/>
</svg>
