<svg width="99" height="88" viewBox="0 0 99 88" fill="none" xmlns="http://www.w3.org/2000/svg">
<path d="M49.3174 35.0864C48.163 35.0864 47.0199 35.3138 45.9533 35.7556C44.8868 36.1974 43.9177 36.8449 43.1014 37.6612C42.2851 38.4775 41.6375 39.4466 41.1958 40.5131C40.754 41.5797 40.5266 42.7228 40.5266 43.8773C40.5266 45.0317 40.754 46.1748 41.1958 47.2414C41.6375 48.3079 42.2851 49.277 43.1014 50.0933C43.9177 50.9096 44.8868 51.5571 45.9533 51.9989C47.0199 52.4407 48.163 52.6681 49.3174 52.6681C50.4719 52.6681 51.615 52.4407 52.6815 51.9989C53.7481 51.5571 54.7172 50.9096 55.5335 50.0933C56.3498 49.277 56.9973 48.3079 57.4391 47.2414C57.8809 46.1748 58.1083 45.0317 58.1083 43.8773C58.1083 42.7228 57.8809 41.5797 57.4391 40.5131C56.9973 39.4466 56.3498 38.4775 55.5335 37.6612C54.7172 36.8449 53.7481 36.1974 52.6815 35.7556C51.615 35.3138 50.4719 35.0864 49.3174 35.0864ZM24.6916 61.3644L22.7518 60.8712C8.29355 57.2176 0 51.0159 0 43.8608C0 36.7057 8.29355 30.504 22.7518 26.8504L24.6916 26.3613L25.2382 28.2847C26.7028 33.3304 28.5763 38.2482 30.8398 42.9895L31.2549 43.8649L30.8398 44.7403C28.5725 49.48 26.699 54.3982 25.2382 59.4451L24.6916 61.3644ZM21.8517 31.3424C10.8622 34.4288 4.11801 39.151 4.11801 43.8608C4.11801 48.5665 10.8622 53.2887 21.8517 56.3792C23.1957 52.1048 24.8185 47.923 26.7095 43.8608C24.8163 39.7996 23.1935 35.6176 21.8517 31.3424ZM73.9433 61.3644L73.3967 59.4369C71.9335 54.3915 70.0586 49.4748 67.7909 44.7362L67.3758 43.8608L67.7909 42.9854C70.0578 38.2451 71.9326 33.327 73.3967 28.2806L73.9433 26.3572L75.8872 26.8463C90.3413 30.4999 98.6349 36.7016 98.6349 43.8608C98.6349 51.0201 90.3413 57.2176 75.8872 60.8712L73.9433 61.3644ZM71.9254 43.8608C73.8981 48.1309 75.5296 52.327 76.7831 56.3792C87.7768 53.2887 94.5169 48.5665 94.5169 43.8608C94.5169 39.151 87.7727 34.433 76.7831 31.3424C75.4409 35.6175 73.8182 39.7994 71.9254 43.8608ZM21.823 31.3218L21.2764 29.4026C17.2118 15.0759 18.4447 4.80962 24.6587 1.22589C30.7535 -2.29209 40.5389 1.86291 50.7928 12.3881L52.1902 13.8224L50.7928 15.2567C47.1493 19.0443 43.8204 23.1224 40.8389 27.4504L40.2841 28.2436L39.3183 28.3258C34.0739 28.7393 28.8716 29.5777 23.7628 30.8328L21.823 31.3218ZM29.6151 4.07397C28.5137 4.07397 27.5397 4.31234 26.7177 4.78496C22.6326 7.13987 21.9093 15.3266 24.7245 26.3737C29.104 25.3994 33.5424 24.7116 38.0114 24.3147C40.59 20.6483 43.4072 17.1556 46.4447 13.8594C40.0334 7.61661 33.9633 4.07397 29.6151 4.07397ZM69.0239 87.7574C69.0197 87.7574 69.0197 87.7574 69.0239 87.7574C63.1674 87.7574 55.6465 83.3476 47.842 75.3335L46.4447 73.8992L47.842 72.4649C51.4846 68.6761 54.8122 64.5966 57.7918 60.2671L58.3466 59.4739L59.3083 59.3917C64.5555 58.9805 69.7606 58.1435 74.8721 56.8888L76.8119 56.3998L77.3626 58.3232C81.419 72.6416 80.1901 82.912 73.9762 86.4916C72.4668 87.345 70.7576 87.7819 69.0239 87.7574ZM52.1902 73.8622C58.6014 80.105 64.6716 83.6476 69.0198 83.6476H69.0239C70.1212 83.6476 71.0993 83.4093 71.9171 82.9367C76.0023 80.5817 76.7297 72.3909 73.9104 61.3438C69.5297 62.3195 65.0899 63.0073 60.6193 63.4028C58.0439 67.0718 55.228 70.5659 52.1902 73.8622ZM76.8119 31.3218L74.8721 30.8328C69.7612 29.574 64.5559 28.7356 59.3083 28.3258L58.3466 28.2436L57.7918 27.4504C54.8137 23.121 51.486 19.0428 47.842 15.2567L46.4447 13.8224L47.842 12.3881C58.0918 1.86702 67.8731 -2.28798 73.9762 1.22589C80.1901 4.80962 81.4231 15.0759 77.3626 29.3985L76.8119 31.3218ZM60.6193 24.3147C65.3127 24.7421 69.7718 25.4366 73.9104 26.3737C76.7297 15.3266 76.0023 7.13987 71.9171 4.78496C67.8567 2.43828 60.2248 6.03434 52.1902 13.8594C55.2263 17.1557 58.0421 20.6484 60.6193 24.3147ZM29.6151 87.7574C27.8799 87.7826 26.1693 87.3458 24.6587 86.4916C18.4447 82.912 17.2118 72.6458 21.2764 58.3232L21.8189 56.3998L23.7587 56.8888C28.5055 58.0848 33.7413 58.9273 39.3142 59.3917L40.28 59.4739L40.8307 60.2671C43.8126 64.5961 47.1415 68.6755 50.7846 72.4649L52.1819 73.8992L50.7846 75.3335C42.9843 83.3476 35.4633 87.7574 29.6151 87.7574ZM24.7245 61.3438C21.9052 72.3909 22.6326 80.5817 26.7177 82.9367C30.7741 85.2505 38.4018 81.6832 46.4447 73.8622C43.4084 70.5635 40.5913 67.0696 38.0114 63.4028C33.5422 63.0076 29.1037 62.3198 24.7245 61.3438ZM49.3174 63.9248C45.9351 63.9248 42.4582 63.7768 38.9772 63.4891L38.0114 63.407L37.4566 62.6138C35.4876 59.7846 33.6366 56.8751 31.9084 53.8928C30.1852 50.9081 28.5865 47.8533 27.1164 44.7362L26.7054 43.8608L27.1164 42.9854C28.5863 39.8682 30.185 36.8134 31.9084 33.8288C33.6098 30.8862 35.4798 27.9518 37.4566 25.1079L38.0114 24.3147L38.9772 24.2325C45.8597 23.6489 52.7793 23.6489 59.6618 24.2325L60.6235 24.3147L61.1742 25.1079C65.1161 30.7673 68.5764 36.7475 71.5185 42.9854L71.9336 43.8608L71.5185 44.7362C68.5834 50.9779 65.1229 56.9586 61.1742 62.6138L60.6235 63.407L59.6618 63.4891C56.1808 63.7768 52.6998 63.9248 49.3174 63.9248ZM40.2882 59.4698C46.3707 59.926 52.2641 59.926 58.3507 59.4698C61.7488 54.5021 64.7658 49.2842 67.3758 43.8608C64.7704 38.4342 61.7518 33.2158 58.3466 28.2518C52.3358 27.7956 46.2991 27.7956 40.2882 28.2518C36.8815 33.2149 33.8629 38.4334 31.259 43.8608C33.8719 49.2835 36.8902 54.5013 40.2882 59.4698Z" fill="black"/>
</svg>
