<svg width="65" height="52" viewBox="0 0 65 52" fill="none" xmlns="http://www.w3.org/2000/svg">
<path d="M0 6.5C0 4.77609 0.684819 3.12279 1.90381 1.90381C3.12279 0.684819 4.77609 0 6.5 0H58.5C60.2239 0 61.8772 0.684819 63.0962 1.90381C64.3152 3.12279 65 4.77609 65 6.5V45.5C65 47.2239 64.3152 48.8772 63.0962 50.0962C61.8772 51.3152 60.2239 52 58.5 52H6.5C4.77609 52 3.12279 51.3152 1.90381 50.0962C0.684819 48.8772 0 47.2239 0 45.5V6.5ZM11.4368 6.5L32.5 24.9307L53.5633 6.5H11.44H11.4368ZM58.5 10.8192L34.6418 31.6972C34.0491 32.2165 33.288 32.5028 32.5 32.5028C31.712 32.5028 30.9509 32.2165 30.3582 31.6972L6.5 10.8192V45.5H58.5V10.8192Z" fill="#0D0D0D"/>
</svg>
