<svg width="86" height="62" viewBox="0 0 86 62" fill="none" xmlns="http://www.w3.org/2000/svg">
<path d="M49.942 27.4622H57.5103C57.6858 27.4622 57.8543 27.3927 57.9788 27.2689C58.1032 27.1451 58.1737 26.977 58.1746 26.8014V20.0618C58.1746 19.8856 58.1046 19.7166 57.98 19.592C57.8554 19.4675 57.6865 19.3975 57.5103 19.3975H49.942C49.7668 19.3975 49.5987 19.4671 49.4748 19.591C49.3509 19.7149 49.2813 19.883 49.2813 20.0582V26.8014C49.2813 27.1657 49.5777 27.4622 49.942 27.4622ZM39.3915 8.06829H46.9561C47.1323 8.06829 47.3013 7.9983 47.4259 7.87371C47.5505 7.74913 47.6205 7.58016 47.6205 7.40397V0.660749C47.6195 0.48518 47.5491 0.317124 47.4246 0.193311C47.3001 0.0694978 47.1317 -2.53741e-06 46.9561 0H39.3915C39.2162 0 39.0481 0.069615 38.9242 0.19353C38.8003 0.317444 38.7307 0.485508 38.7307 0.660749V7.40397C38.7307 7.76827 39.0236 8.06472 39.3915 8.06472M39.3915 17.7652H46.9561C47.132 17.7643 47.3005 17.694 47.4249 17.5696C47.5492 17.4452 47.6195 17.2768 47.6205 17.1009V10.3613C47.6195 10.1857 47.5491 10.0176 47.4246 9.89383C47.3001 9.77002 47.1317 9.70052 46.9561 9.70052H39.3915C39.2162 9.70052 39.0481 9.77013 38.9242 9.89405C38.8003 10.018 38.7307 10.186 38.7307 10.3613V17.1009C38.7307 17.4652 39.0236 17.7617 39.3915 17.7652ZM28.9266 17.7652H36.4984C36.6734 17.7634 36.8405 17.6925 36.9636 17.5682C37.0866 17.4438 37.1556 17.2759 37.1556 17.1009V10.3613C37.1556 10.186 37.086 10.018 36.9621 9.89405C36.8382 9.77013 36.6701 9.70052 36.4949 9.70052H28.9302C28.7549 9.70052 28.5869 9.77013 28.463 9.89405C28.339 10.018 28.2694 10.186 28.2694 10.3613V17.1009C28.2694 17.4652 28.5659 17.7617 28.9302 17.7652M18.3439 17.7652H25.9122C26.0877 17.7643 26.2558 17.6939 26.3796 17.5694C26.5034 17.4449 26.5729 17.2765 26.5729 17.1009V10.3613C26.5729 10.186 26.5033 10.018 26.3794 9.89405C26.2555 9.77013 26.0874 9.70052 25.9122 9.70052H18.3439C18.1683 9.70052 17.9999 9.77002 17.8754 9.89383C17.7509 10.0176 17.6805 10.1857 17.6796 10.3613V17.1009C17.6796 17.4652 17.9796 17.7617 18.3439 17.7652ZM39.3915 27.4622H46.9561C47.1317 27.4622 47.3001 27.3927 47.4246 27.2689C47.5491 27.1451 47.6195 26.977 47.6205 26.8014V20.0618C47.6205 19.8856 47.5505 19.7166 47.4259 19.592C47.3013 19.4675 47.1323 19.3975 46.9561 19.3975H39.3915C39.2162 19.3975 39.0481 19.4671 38.9242 19.591C38.8003 19.7149 38.7307 19.883 38.7307 20.0582V26.8014C38.7307 27.1657 39.0236 27.4622 39.3915 27.4622ZM28.9266 27.4622H36.4984C36.6731 27.4612 36.8402 27.3912 36.9634 27.2674C37.0865 27.1436 37.1556 26.9761 37.1556 26.8014V20.0618C37.1561 19.975 37.1395 19.889 37.1067 19.8087C37.0739 19.7283 37.0256 19.6552 36.9646 19.5935C36.9036 19.5318 36.831 19.4828 36.751 19.4491C36.671 19.4155 36.5852 19.3979 36.4984 19.3975H28.9266C28.752 19.3984 28.5848 19.4684 28.4617 19.5923C28.3385 19.7161 28.2694 19.8836 28.2694 20.0582V26.8014C28.2694 27.1657 28.5659 27.4622 28.9302 27.4622M18.3439 27.4622H25.9122C26.0874 27.4622 26.2555 27.3926 26.3794 27.2687C26.5033 27.1447 26.5729 26.9767 26.5729 26.8014V20.0618C26.5734 19.975 26.5568 19.889 26.524 19.8087C26.4912 19.7283 26.4429 19.6552 26.3819 19.5935C26.3209 19.5318 26.2483 19.4828 26.1683 19.4491C26.0883 19.4155 26.0025 19.3979 25.9157 19.3975H18.3439C18.1677 19.3975 17.9987 19.4675 17.8742 19.592C17.7496 19.7166 17.6796 19.8856 17.6796 20.0618V26.8014C17.6796 27.1657 17.9796 27.4622 18.3439 27.4622ZM7.91477 27.4622H15.4866C15.6612 27.4612 15.8284 27.3912 15.9515 27.2674C16.0747 27.1436 16.1438 26.9761 16.1438 26.8014V20.0618C16.1443 19.975 16.1276 19.889 16.0949 19.8087C16.0621 19.7283 16.0138 19.6552 15.9528 19.5935C15.8918 19.5318 15.8192 19.4828 15.7392 19.4491C15.6592 19.4155 15.5734 19.3979 15.4866 19.3975H7.91477C7.74015 19.3984 7.573 19.4684 7.44986 19.5923C7.32671 19.7161 7.25759 19.8836 7.25759 20.0582V26.8014C7.25759 27.1657 7.55046 27.4622 7.91834 27.4622M84.8725 23.2191C84.6403 23.0369 82.4723 21.3976 77.8935 21.3976C76.6863 21.4011 75.4791 21.5047 74.2862 21.7083C73.4004 15.6365 68.3823 12.6721 68.1573 12.5435L66.9286 11.8328L66.1215 13.0007C65.1071 14.5651 64.3714 16.2937 63.9356 18.1081C63.1141 21.5726 63.6142 24.8299 65.375 27.6122C63.2499 28.798 59.839 29.0873 59.1461 29.1123H2.68235C1.97343 29.1132 1.29372 29.3948 0.791768 29.8954C0.289821 30.396 0.00646369 31.0749 0.00363243 31.7838C-0.0625079 36.7299 0.775083 41.6466 2.47519 46.2918C4.42173 51.392 7.31474 55.1494 11.0828 57.4495C15.2973 60.0318 22.1548 61.5104 29.9231 61.5104C33.4334 61.5212 36.937 61.2031 40.3879 60.5604C45.1841 59.6793 49.7991 58.0025 54.0422 55.5994C57.54 53.5748 60.6878 50.9986 63.3642 47.9704C67.8358 42.9059 70.5003 37.2663 72.4825 32.2553H73.2718C78.1721 32.2553 81.183 30.2945 82.8438 28.6515C83.9474 27.605 84.8082 26.33 85.3689 24.9156L85.7189 23.887L84.8725 23.2191Z" fill="black"/>
</svg>
