<svg width="99" height="99" viewBox="0 0 99 99" fill="none" xmlns="http://www.w3.org/2000/svg">
<path d="M58.0751 0C57.3641 0 56.7025 0.152061 56.0901 0.357549C57.3888 1.2206 58.1039 2.37133 58.4573 3.67001C58.4861 3.84673 58.5354 3.97413 58.5601 4.15085C58.5906 4.30254 58.6084 4.4565 58.6135 4.61115C58.7121 6.85096 58.0258 7.13454 57.545 8.45788C56.8052 10.1634 57.0107 11.9964 57.8984 13.4718C57.9797 13.6696 58.0816 13.8584 58.2025 14.0348C57.2367 7.59072 62.6123 6.62493 63.6027 4.61115C63.6808 2.85217 62.2301 1.68089 61.0835 0.867159C60.1824 0.300954 59.1393 0.0017086 58.0751 0.00410976V0ZM66.1754 1.45074C66.0768 2.03844 66.1508 1.88638 66.1261 2.1905C66.1015 2.39599 66.1015 2.65079 66.0768 2.85217C66.0234 3.05766 65.9741 3.26315 65.896 3.46452C65.8467 3.67001 65.7727 3.8755 65.6905 4.07688L65.4151 4.66046C65.3329 4.76321 65.2877 4.86595 65.2096 4.9687L65.0576 5.19473C64.9363 5.36914 64.8089 5.53912 64.6754 5.70434C64.5233 5.86051 64.3959 6.03723 64.2151 6.16463V6.18929C64.063 6.3167 63.911 6.46876 63.7301 6.60027C63.1959 7.00713 62.5876 7.31126 62.0246 7.69346C61.8479 7.81676 61.667 7.92361 61.515 8.07567C61.3421 8.19728 61.1798 8.3334 61.03 8.48254C60.8533 8.6346 60.7259 8.78666 60.5738 8.96749C60.4464 9.11955 60.2944 9.29627 60.1916 9.4771C60.0637 9.64918 59.9444 9.82749 59.8341 10.0114C59.7313 10.2169 59.6574 10.3936 59.5546 10.595C59.4765 10.8004 59.4026 10.9772 59.3491 11.1826C59.2817 11.3925 59.2228 11.605 59.1724 11.8197C59.1478 11.9224 59.1478 12.0498 59.1231 12.1484C59.0943 12.2512 59.0943 12.3539 59.0697 12.4567C59.0697 12.6622 59.045 12.8882 59.045 13.0937C59.045 13.2457 59.045 13.3978 59.0697 13.5499C59.0697 13.7554 59.0943 13.9608 59.1478 14.1869C59.1724 14.3924 59.2217 14.5979 59.2711 14.8033C59.3532 15.0047 59.4026 15.2061 59.4765 15.4116C59.53 15.5349 59.6039 15.6664 59.6574 15.7691L53.7969 13.5006C52.8064 13.2211 51.8365 12.9663 50.8419 12.7361L49.2391 12.3539C47.7103 12.0498 46.1568 11.8197 44.6033 11.6676C44.5499 11.6676 44.5252 11.6429 44.4759 11.6429C41.8509 11.38 39.208 11.3456 36.577 11.5402C35.0235 11.6429 33.47 11.8443 31.9165 12.0991C30.762 12.298 29.6147 12.5365 28.4767 12.8142L27.33 13.1183C26.9519 13.2704 26.5903 13.4471 26.2368 13.6033L25.3943 13.9855C25.345 14.0102 25.2957 14.0102 25.271 14.0348C25.0121 14.1622 24.7861 14.265 24.5559 14.3924C24.225 14.5383 23.9014 14.7002 23.586 14.8773C23.4093 14.9513 23.2326 15.054 23.0764 15.1321C23.0035 15.1774 22.928 15.2186 22.8504 15.2554C22.6202 15.3869 22.3901 15.5143 22.1846 15.6417C21.9749 15.7577 21.7718 15.8853 21.5764 16.0239C21.3955 16.1472 21.2188 16.25 21.0668 16.3774C21.0421 16.4061 21.0133 16.4061 20.9887 16.4308C20.8366 16.5336 20.6599 16.661 20.5037 16.7884L20.4544 16.8377L20.0722 17.1418C20.0229 17.1706 19.9695 17.2199 19.9201 17.2445C19.7927 17.3473 19.6653 17.4747 19.5379 17.5733C19.5133 17.6267 19.4598 17.6555 19.4352 17.6761C19.2831 17.8322 19.1311 17.9596 18.979 18.1117C18.9502 18.1117 18.9502 18.1364 18.9256 18.161C18.7672 18.2995 18.615 18.4448 18.4694 18.5966C18.4406 18.6213 18.4406 18.646 18.416 18.646C18.2822 18.7769 18.1547 18.914 18.0338 19.0569C17.9844 19.1063 17.9105 19.1556 17.857 19.2049C17.7206 19.3664 17.5751 19.52 17.4214 19.6652C17.3967 19.7145 17.3474 19.7433 17.3228 19.7885C17.1173 19.994 16.9406 20.1995 16.7351 20.4049L16.6611 20.4789C16.2501 20.9146 15.8186 21.3461 15.3583 21.7283C14.9021 22.1393 14.4172 22.5174 13.9322 22.8502C12.9585 23.5458 11.9077 24.1263 10.8006 24.5805C10.2663 24.8106 9.70329 25.0161 9.14436 25.1928C8.07582 25.423 6.97852 25.8545 6.03739 25.9326C5.8319 25.9326 5.60586 25.9819 5.40037 26.0065L4.76336 26.1586L4.15101 26.3887C3.94552 26.4668 3.74414 26.5696 3.54276 26.6682C3.36193 26.7956 3.16056 26.8984 2.97973 27.0258C2.7984 27.157 2.62798 27.3027 2.47012 27.4614C2.2934 27.5847 2.11257 27.7655 1.96051 27.9176C1.80845 28.0943 1.65639 28.2464 1.52898 28.4272C1.40158 28.6327 1.24952 28.8094 1.14678 29.0149C1.01291 29.2 0.893381 29.3951 0.789227 29.5985C0.686483 29.8286 0.583739 30.0341 0.509763 30.2601C0.431678 30.4656 0.357702 30.6958 0.279617 30.9218C0.2303 31.1273 0.176873 31.3328 0.156324 31.5383C0.156324 31.5588 0.127556 31.5876 0.127556 31.6122C0.078239 31.8424 0.078239 32.1465 0.0494708 32.2986C0.0248122 32.4794 0.000153681 32.6274 0.000153681 32.8082C-0.00457467 33.2514 0.0998723 33.6889 0.304276 34.0822V34.1069C0.382361 34.2589 0.485105 34.4151 0.587849 34.5672C0.686483 34.7192 0.793337 34.8713 0.916629 35.0233C1.04403 35.1507 1.19609 35.3069 1.35226 35.4343C1.50076 35.5833 1.66162 35.7194 1.8331 35.8412C2.44546 36.3755 2.59752 36.5522 3.38659 36.959C3.51399 37.0371 3.6414 37.0864 3.79757 37.1645C3.82223 37.1645 3.84689 37.1892 3.87154 37.1892C3.87154 37.2426 3.87154 37.2673 3.8962 37.3166C3.95569 37.7367 4.0661 38.1479 4.22498 38.5413C4.30718 38.6934 4.35649 38.8454 4.43047 38.9975C4.45924 39.0509 4.4839 39.1002 4.51267 39.1249C4.6113 39.3304 4.71404 39.5071 4.81268 39.6879L5.19489 40.2222C5.32229 40.3742 5.47846 40.551 5.63052 40.7071C5.78258 40.8592 5.93464 40.9866 6.11547 41.1387C6.11547 41.1387 6.14013 41.1633 6.16479 41.1633C6.31685 41.2907 6.46891 41.4181 6.62508 41.5209C6.80231 41.6452 6.98921 41.7552 7.18401 41.8496C7.36073 41.9524 7.56621 42.0551 7.76759 42.1332C7.93181 42.2073 8.10237 42.2665 8.2772 42.3099C8.30597 42.3346 8.33063 42.3346 8.37995 42.3593C8.48269 42.388 8.61009 42.4127 8.70873 42.4373C8.63475 43.8141 8.61009 45.1087 8.81558 45.569C9.04162 46.0786 10.1636 44.5251 11.2814 42.7415C11.1335 44.5004 11.0307 46.5635 11.2814 47.1759C11.565 47.8129 13.0897 45.8238 14.4172 43.6333C32.4796 39.4578 48.9597 51.935 50.6899 69.5658C50.3611 66.8123 46.9706 65.2876 45.4171 65.6698C44.6527 67.5521 43.354 69.9727 41.2662 71.4769C41.4429 69.7919 41.369 68.0658 41.0114 66.3808C40.4409 68.7263 39.362 70.9178 37.851 72.8002C35.4345 72.9769 33.0138 71.8057 31.7398 70.0467C31.6371 69.9727 31.6124 69.8206 31.5343 69.7179C31.4603 69.5412 31.3823 69.3604 31.3288 69.1836C31.2549 69.013 31.2038 68.8334 31.1768 68.6494C31.1521 68.4685 31.1521 68.2918 31.1521 68.0863V67.7041C31.1825 67.5234 31.2251 67.3449 31.2795 67.1699C31.3329 66.9931 31.3823 66.8164 31.4603 66.6356C31.559 66.4589 31.6371 66.278 31.7645 66.1013C32.196 64.8766 32.196 63.8821 31.4069 63.2985C31.2537 63.1984 31.0913 63.1131 30.922 63.0437C30.8233 63.019 30.6959 62.9697 30.5932 62.9409L30.3877 62.8669C30.2132 62.8105 30.0346 62.7679 29.8534 62.7395C29.6798 62.6887 29.5 62.6625 29.3192 62.6615C29.1342 62.6324 28.9474 62.616 28.7602 62.6121C28.6328 62.6121 28.5054 62.6368 28.378 62.6368C28.1876 62.6357 27.998 62.662 27.815 62.7149C27.6383 62.7395 27.4615 62.7642 27.2807 62.8135C27.0989 62.8623 26.9205 62.9227 26.7464 62.9943C26.5697 63.0683 26.4177 63.1464 26.2368 63.2245C26.0848 63.2985 25.9327 63.4012 25.7519 63.4793C19.8174 67.3507 23.36 76.4168 27.4081 79.0429C25.8793 79.3224 24.3258 79.6512 23.8943 79.9841L23.8408 80.0334C24.9382 80.6951 26.0848 81.2581 27.2807 81.7431C28.9123 82.2773 30.6425 82.7582 31.4069 82.9636V82.9883C33.5174 83.4217 35.6756 83.5765 37.8263 83.4486C49.1117 82.6595 58.3587 74.0743 60.0396 62.7642L60.1916 63.4259C60.2697 63.8862 60.3684 64.3711 60.4218 64.852V64.8766C60.4711 65.1068 60.4958 65.3369 60.5245 65.5424V65.641C60.5492 65.8712 60.5738 66.1013 60.5738 66.3068C60.5985 66.5863 60.6232 66.8657 60.6232 67.1452V67.5562C60.6232 67.6795 60.6519 67.8315 60.6519 67.9589C60.6519 68.1151 60.6232 68.2672 60.6232 68.4192V68.7768C60.6232 68.9535 60.5985 69.1056 60.5985 69.2864C60.5985 69.3891 60.5985 69.4919 60.5738 69.6152C60.5738 69.796 60.5492 69.9727 60.5492 70.1782C60.5245 70.2522 60.5245 70.3303 60.5245 70.4042L60.4423 70.9919C60.4423 71.07 60.4423 71.144 60.4218 71.2221C60.393 71.4769 60.3437 71.707 60.319 71.9618V72.0112L60.167 72.7262V72.8002L60.0149 73.4865C60.0149 73.5153 59.9862 73.5687 59.9862 73.5893C59.9393 73.8224 59.8803 74.0528 59.8094 74.2797V74.3537C59.7313 74.6085 59.6574 74.8387 59.6039 75.0688C59.5793 75.0935 59.5793 75.1181 59.5793 75.1181L59.3491 75.8825C59.2505 76.1373 59.1724 76.3675 59.0697 76.6223C58.9669 76.8771 58.893 77.1319 58.7902 77.3621C58.6875 77.6169 58.5847 77.8429 58.4861 78.1018H58.4573C58.3587 78.3278 58.2518 78.5827 58.1285 78.8128C58.1071 78.8736 58.081 78.9327 58.0505 78.9895C58.0258 79.0142 58.0258 79.0429 58.0011 79.0676C56.3165 82.4402 53.8644 85.3708 50.8419 87.6241C50.6365 87.7515 50.4351 87.9077 50.2296 88.0598C50.1803 88.1091 50.1063 88.1337 50.0529 88.183C49.8707 88.3177 49.6843 88.4465 49.4939 88.5694L49.5679 88.7214H49.5967L50.6652 88.5694H50.6899C51.3516 88.4666 52.0132 88.3392 52.6749 88.2118C52.8557 88.1871 53.0571 88.1337 53.2379 88.0844L53.5955 88.0063C53.7722 87.9817 53.9489 87.9323 54.1297 87.9077C54.2818 87.8543 54.4339 87.8255 54.5859 87.7803C57.134 87.1638 59.6039 86.3254 61.9753 85.335C57.8813 90.9112 52.4365 95.3548 46.1527 98.2478C49.0871 98.0423 52.0132 97.5615 54.8407 96.7437C65.0749 93.7347 73.7186 86.828 78.9116 77.51C77.8628 83.4086 75.5233 89.0024 72.0606 93.8915C74.5294 92.2631 76.8105 90.3665 78.8623 88.2365C84.564 82.2839 88.3071 74.7288 89.5887 66.5863C90.4518 70.6138 90.7066 74.7647 90.3285 78.8621C108.716 53.2131 91.8532 26.6189 84.7967 19.6159C84.7721 19.5624 84.7474 19.5378 84.7474 19.4885C84.7228 19.5131 84.7228 19.5131 84.7228 19.5378C84.7228 19.5131 84.7228 19.5131 84.694 19.4885C84.694 19.7926 84.6694 20.0967 84.6447 20.4049C84.5741 20.9755 84.4891 21.5442 84.3899 22.1105C84.2666 22.6694 84.1104 23.2325 83.9584 23.7955C83.7775 24.3298 83.5762 24.8887 83.3419 25.423C83.109 25.9506 82.8554 26.4688 82.5816 26.9764C82.0129 27.975 81.3569 28.9212 80.6212 29.804C80.239 30.2601 79.8322 30.667 79.4212 31.078C79.181 31.2976 78.9343 31.51 78.6814 31.715L78.0979 32.2246C77.6431 32.5835 77.1669 32.9143 76.6718 33.2151C76.1849 33.5286 75.6829 33.818 75.1676 34.0822C74.6333 34.337 74.0991 34.5672 73.5648 34.7973C72.4766 35.2112 71.3507 35.5181 70.203 35.7138C69.6153 35.8165 69.0317 35.8658 68.4687 35.9193C68.0624 35.948 67.6554 35.9645 67.2481 35.9686C66.6687 35.9606 66.09 35.9263 65.5138 35.8658C64.9319 35.8202 64.3539 35.735 63.7836 35.611C63.2059 35.5062 62.636 35.362 62.078 35.1795H62.0492C62.6123 35.1261 63.1712 35.0768 63.7343 34.974C64.8812 34.7752 66.0068 34.4683 67.096 34.0576C67.655 33.8521 68.1892 33.5973 68.6988 33.3425C69.2331 33.0876 69.7181 32.8082 70.2277 32.5041C70.7126 32.1753 71.1935 31.8424 71.6538 31.4848C72.114 31.1273 72.5456 30.7451 72.9524 30.3382C73.384 29.956 73.7662 29.5245 74.1484 29.0889C74.5306 28.6327 74.8881 28.1724 75.2169 27.7162C75.2703 27.6381 75.3238 27.5354 75.3731 27.4614C75.6279 27.0504 75.8827 26.6436 76.1128 26.2367C76.6744 25.2229 77.1342 24.156 77.4855 23.0516C77.6663 22.5174 77.7937 21.9584 77.9211 21.3954C78.0239 20.8118 78.1266 20.2529 78.1759 19.6898C78.2252 19.1063 78.2787 18.5186 78.2787 17.9596C78.2787 17.5487 78.2499 17.1418 78.2253 16.7349C78.1744 16.1644 78.1059 15.5956 78.0198 15.0294C77.9207 14.4552 77.7945 13.8861 77.6417 13.3238C77.4608 12.7896 77.2841 12.2265 77.0786 11.6923C76.8731 11.158 76.6225 10.6237 76.3676 10.1141C76.0841 9.6045 75.8046 9.09489 75.5005 8.60994C75.1752 8.13383 74.8352 7.66784 74.4813 7.21262C74.0991 6.77699 73.7168 6.34135 73.31 5.90983C73.0956 5.69118 72.8749 5.47875 72.6483 5.27282C71.4976 4.381 70.3058 3.54261 69.1057 2.7782C68.9411 2.68312 68.7709 2.59804 68.5961 2.52339C67.8405 2.06077 67.0264 1.7014 66.1754 1.45485V1.45074Z" fill="black"/>
</svg>
